<svg xmlns="http://www.w3.org/2000/svg" xmlns:xlink="http://www.w3.org/1999/xlink" width="500" zoomAndPan="magnify" viewBox="0 0 375 374.999991" height="500" preserveAspectRatio="xMidYMid meet" version="1.0"><defs><g/></defs><g fill="#222222" fill-opacity="1"><g transform="translate(125.262037, 205.868965)"><g><path d="M 5.691406 -17.519531 C 5.179688 -16.625 4.988281 -15.730469 4.988281 -14.832031 C 4.988281 -13.746094 5.179688 -12.722656 5.179688 -11.699219 C 5.179688 -10.167969 5.050781 -8.695312 5.050781 -7.226562 C 5.050781 -6.394531 5.5625 -5.691406 5.5625 -4.988281 C 5.5625 -4.539062 5.5 -4.09375 5.5 -3.644531 C 5.5 -2.238281 6.011719 -1.023438 6.585938 0.382812 C 6.585938 0.960938 6.203125 0.960938 6.203125 1.46875 C 6.265625 1.535156 6.328125 1.597656 6.394531 1.597656 C 6.839844 1.46875 7.289062 1.277344 7.609375 1.277344 C 8.054688 1.277344 8.3125 1.789062 8.757812 1.789062 C 12.980469 1.789062 13.492188 -1.40625 13.492188 -2.683594 C 13.492188 -3.453125 13.042969 -4.410156 13.042969 -5.433594 C 13.042969 -6.265625 13.105469 -7.03125 13.105469 -7.863281 C 13.105469 -9.78125 12.722656 -11.636719 12.722656 -13.554688 C 12.722656 -13.746094 12.789062 -13.9375 12.789062 -14.195312 C 12.789062 -14.320312 12.46875 -14.515625 12.277344 -14.515625 C 12.019531 -14.515625 11.765625 -14.386719 11.445312 -14.386719 C 11.253906 -14.386719 11.1875 -14.707031 11.1875 -14.898438 C 11.1875 -16.113281 12.019531 -18.285156 12.019531 -20.203125 C 12.277344 -21.417969 15.664062 -21.546875 17.839844 -21.546875 C 19.566406 -21.546875 19.820312 -21.484375 20.714844 -21.484375 C 21.609375 -21.484375 23.082031 -21.738281 23.082031 -22.890625 C 23.082031 -25.640625 20.332031 -26.023438 18.414062 -26.023438 C 16.304688 -26.023438 15.921875 -25.640625 12.722656 -25.640625 C 11.445312 -25.640625 11.507812 -25.894531 11.507812 -29.667969 C 11.507812 -30.625 11.957031 -31.714844 11.957031 -32.351562 C 11.957031 -32.734375 11.828125 -33.121094 11.828125 -33.566406 C 11.828125 -34.144531 12.019531 -34.652344 12.019531 -35.230469 C 12.019531 -35.484375 11.957031 -35.804688 11.957031 -36.0625 C 11.957031 -36.699219 12.210938 -37.402344 12.210938 -38.042969 C 12.210938 -38.875 11.890625 -39.707031 11.828125 -40.410156 C 11.828125 -42.007812 21.800781 -42.582031 21.800781 -42.644531 C 22.824219 -42.644531 23.847656 -42.261719 24.871094 -42.261719 C 26.726562 -42.261719 26.855469 -43.285156 26.855469 -44.308594 C 26.855469 -45.460938 24.488281 -45.714844 23.402344 -45.714844 C 23.144531 -45.714844 22.953125 -45.714844 22.953125 -45.652344 C 22.953125 -45.652344 22.953125 -45.652344 23.015625 -45.652344 C 22.1875 -45.84375 21.355469 -45.90625 20.523438 -45.90625 C 17.390625 -45.90625 13.9375 -44.820312 10.675781 -44.820312 C 10.039062 -44.820312 9.527344 -45.011719 8.757812 -45.011719 C 6.394531 -45.011719 4.476562 -44.5 4.476562 -43.285156 C 4.476562 -42.261719 4.859375 -41.367188 4.859375 -40.410156 C 4.859375 -39.257812 4.796875 -37.980469 4.796875 -36.765625 C 4.796875 -34.910156 5.179688 -33.183594 5.179688 -31.90625 C 5.179688 -30.945312 5.113281 -30.050781 5.113281 -29.15625 C 5.113281 -27.8125 5.625 -26.660156 5.625 -25.640625 C 5.625 -25.191406 5.308594 -24.742188 5.308594 -24.230469 C 5.308594 -23.273438 5.5 -22.25 5.5 -21.292969 C 5.5 -20.972656 4.921875 -19.117188 4.921875 -19.054688 C 4.921875 -18.667969 5.242188 -18.160156 5.691406 -17.519531 Z M 11.125 -18.351562 C 11.0625 -18.03125 11.0625 -17.390625 10.675781 -17.136719 C 10.421875 -17.648438 10.292969 -18.03125 10.292969 -18.605469 C 10.292969 -18.988281 10.359375 -19.949219 10.742188 -19.949219 C 11.1875 -19.5 11.0625 -19.054688 11.125 -18.351562 Z M 9.144531 -18.542969 C 9.078125 -18.285156 9.078125 -17.964844 8.886719 -17.964844 C 8.503906 -17.964844 8.375 -18.351562 8.375 -18.667969 C 8.375 -18.988281 8.503906 -19.375 8.824219 -19.375 C 9.015625 -19.375 9.144531 -18.796875 9.144531 -18.542969 Z M 8.953125 -13.234375 C 8.824219 -13.425781 8.757812 -13.683594 8.757812 -13.875 C 8.757812 -14.195312 8.886719 -14.449219 9.015625 -14.769531 C 9.144531 -14.515625 9.207031 -14.257812 9.207031 -14.003906 C 9.207031 -13.746094 9.144531 -13.492188 8.953125 -13.234375 Z M 8.886719 -25.957031 C 8.953125 -25.832031 9.078125 -25.765625 9.078125 -25.703125 C 9.078125 -25.511719 8.953125 -25.445312 8.824219 -25.445312 C 8.757812 -25.511719 8.695312 -25.574219 8.695312 -25.640625 C 8.757812 -25.703125 8.824219 -25.832031 8.886719 -25.957031 Z M 8.886719 -25.957031 "/></g></g></g><g fill="#222222" fill-opacity="1"><g transform="translate(152.115757, 205.868965)"><g><path d="M 12.019531 -7.542969 C 11.890625 -8.246094 11.828125 -8.566406 11.828125 -8.953125 C 11.828125 -9.335938 12.339844 -10.421875 12.339844 -11.253906 C 12.339844 -11.765625 12.019531 -12.277344 12.019531 -12.789062 C 12.019531 -12.980469 12.085938 -13.234375 12.085938 -13.492188 C 12.085938 -13.808594 11.765625 -14.128906 11.765625 -14.386719 C 11.765625 -14.769531 12.148438 -15.152344 12.148438 -15.535156 C 12.148438 -16.367188 11.957031 -17.199219 11.957031 -18.160156 C 11.957031 -22.441406 22.25 -18.160156 22.25 -23.144531 C 22.25 -24.679688 19.820312 -24.9375 17.453125 -24.9375 C 15.792969 -24.9375 14.257812 -24.808594 13.425781 -24.808594 C 11.765625 -24.808594 11.574219 -25.253906 11.574219 -27.300781 C 11.574219 -28.070312 11.699219 -28.835938 11.699219 -29.539062 C 11.699219 -32.929688 11.382812 -36.316406 11.382812 -39.769531 C 11.382812 -40.214844 11.890625 -40.601562 12.339844 -40.601562 C 17.582031 -39.832031 22.890625 -39.578125 28.132812 -39.578125 C 29.21875 -39.769531 29.859375 -40.089844 29.859375 -40.472656 C 29.859375 -40.792969 29.601562 -41.238281 29.601562 -41.558594 C 29.601562 -41.878906 29.667969 -42.136719 29.667969 -42.453125 C 29.667969 -44.371094 26.917969 -44.5625 25.320312 -44.5625 C 24.9375 -44.5625 24.488281 -44.4375 24.105469 -44.4375 C 21.675781 -44.4375 19.308594 -44.757812 16.878906 -44.757812 C 16.433594 -44.757812 15.984375 -44.691406 15.535156 -44.691406 C 14.769531 -44.691406 14.128906 -45.011719 13.425781 -45.011719 C 13.042969 -45.011719 12.59375 -44.949219 12.210938 -44.949219 C 11.316406 -44.949219 8.566406 -45.203125 7.03125 -45.84375 C 6.96875 -45.84375 6.90625 -45.90625 6.839844 -45.90625 C 5.5 -45.90625 5.242188 -40.023438 5.242188 -38.296875 C 5.242188 -37.851562 5.308594 -37.339844 5.308594 -36.890625 C 5.308594 -35.550781 5.050781 -33.757812 5.050781 -32.671875 C 5.050781 -32.03125 5.371094 -31.394531 5.371094 -30.691406 C 5.371094 -30.371094 5.113281 -30.050781 5.113281 -29.730469 C 5.113281 -29.410156 5.179688 -29.089844 5.179688 -28.707031 C 5.179688 -28.195312 4.988281 -27.683594 4.988281 -27.109375 C 4.988281 -26.597656 5.050781 -26.023438 5.113281 -25.511719 C 5.113281 -24.808594 4.476562 -24.359375 4.476562 -23.847656 C 4.476562 -22.890625 5.5 -21.738281 5.5 -20.90625 C 5.5 -20.460938 4.988281 -19.882812 4.988281 -19.4375 C 4.988281 -17.390625 5.113281 -15.34375 5.113281 -13.300781 C 5.113281 -13.105469 5.050781 -12.914062 5.050781 -12.722656 C 5.050781 -12.085938 5.5 -11.574219 5.5 -10.996094 C 5.050781 -10.550781 4.796875 -8.503906 4.796875 -8.566406 C 4.796875 -4.285156 5.050781 0.320312 8.441406 0.320312 C 12.339844 0.128906 16.238281 -0.191406 20.011719 -0.191406 C 21.800781 -0.191406 23.65625 0.0625 25.445312 0.0625 C 27.171875 0.0625 28.453125 -0.0625 28.453125 -2.558594 C 28.453125 -4.09375 25.445312 -4.285156 23.59375 -4.410156 C 23.273438 -4.21875 22.953125 -4.15625 22.632812 -4.15625 C 22.3125 -4.15625 22.058594 -4.21875 21.738281 -4.21875 C 19.246094 -4.21875 16.238281 -3.773438 14.257812 -3.773438 C 13.425781 -3.773438 12.53125 -3.835938 12.53125 -4.285156 C 12.53125 -4.988281 13.105469 -5.816406 13.105469 -6.328125 C 13.105469 -7.03125 12.53125 -7.160156 12.019531 -7.542969 Z M 8.441406 -10.039062 C 7.992188 -10.167969 7.800781 -10.484375 7.800781 -10.871094 C 7.800781 -11.0625 7.863281 -11.507812 8.183594 -11.507812 C 8.503906 -11.507812 8.632812 -10.933594 8.632812 -10.742188 C 8.632812 -10.484375 8.566406 -10.230469 8.441406 -9.972656 C 8.757812 -9.972656 8.886719 -9.207031 8.886719 -9.078125 C 8.886719 -8.824219 8.757812 -8.632812 8.566406 -8.183594 C 8.375 -8.566406 8.246094 -8.953125 8.246094 -9.335938 C 8.246094 -9.527344 8.3125 -9.78125 8.441406 -10.039062 Z M 10.613281 -14.386719 C 10.292969 -14.832031 10.167969 -15.089844 10.167969 -15.410156 C 10.167969 -15.601562 10.230469 -15.984375 10.550781 -16.367188 C 10.871094 -16.046875 10.871094 -15.730469 10.871094 -15.472656 C 10.871094 -15.28125 10.804688 -14.960938 10.613281 -14.386719 Z M 8.246094 -25.382812 C 7.992188 -25.894531 7.863281 -26.277344 7.863281 -26.726562 C 7.863281 -26.917969 7.863281 -27.429688 8.054688 -27.429688 C 8.121094 -27.429688 8.375 -27.300781 8.375 -27.238281 C 8.3125 -26.660156 8.3125 -26.023438 8.246094 -25.382812 Z M 10.101562 -28.195312 C 9.972656 -28.386719 9.847656 -28.578125 9.847656 -28.835938 C 9.847656 -28.898438 9.847656 -29.21875 10.039062 -29.21875 C 10.230469 -29.21875 10.359375 -29.089844 10.359375 -28.773438 C 10.359375 -28.578125 10.292969 -28.386719 10.101562 -28.195312 Z M 7.863281 -17.839844 C 7.738281 -17.710938 7.863281 -17.582031 7.671875 -17.582031 C 7.609375 -17.582031 7.542969 -17.710938 7.542969 -17.839844 C 7.609375 -17.902344 7.671875 -17.964844 7.738281 -17.964844 C 7.738281 -17.964844 7.800781 -17.902344 7.863281 -17.839844 Z M 10.230469 -25.445312 C 10.167969 -25.382812 10.101562 -25.320312 10.101562 -25.320312 C 10.039062 -25.382812 9.972656 -25.511719 9.910156 -25.640625 C 9.910156 -25.640625 10.039062 -25.765625 10.039062 -25.765625 C 10.167969 -25.703125 10.230469 -25.574219 10.230469 -25.445312 Z M 6.777344 -10.421875 C 6.648438 -10.421875 6.585938 -10.421875 6.585938 -10.550781 C 6.585938 -10.613281 6.648438 -10.613281 6.648438 -10.613281 C 6.777344 -10.613281 6.777344 -10.484375 6.777344 -10.421875 Z M 6.777344 -10.421875 "/></g></g></g><g fill="#222222" fill-opacity="1"><g transform="translate(181.974535, 205.868965)"><g><path d="M 24.742188 -7.800781 C 24.742188 -7.863281 24.742188 -7.863281 24.742188 -7.863281 C 24.742188 -7.800781 24.742188 -7.800781 24.742188 -7.800781 Z M 25.511719 -9.460938 C 25.511719 -9.527344 25.511719 -9.527344 25.445312 -9.527344 C 25.511719 -9.527344 25.511719 -9.527344 25.511719 -9.460938 Z M 23.082031 -5.242188 L 23.015625 -5.179688 C 23.015625 -5.179688 23.082031 -5.179688 23.082031 -5.242188 Z M 40.601562 -20.714844 C 39.511719 -21.035156 38.234375 -21.417969 37.402344 -21.417969 C 35.484375 -21.417969 33.121094 -20.714844 31.136719 -20.714844 C 29.285156 -20.714844 29.601562 -22.699219 27.8125 -22.824219 C 27.171875 -22.824219 27.109375 -23.785156 26.40625 -23.914062 C 25.511719 -24.105469 24.679688 -24.808594 23.914062 -24.808594 C 23.144531 -24.871094 22.441406 -24.9375 21.675781 -24.9375 C 16.304688 -24.9375 10.933594 -22.121094 6.074219 -21.164062 C 5.5625 -21.164062 5.113281 -22.441406 5.113281 -23.015625 C 5.113281 -23.59375 6.011719 -24.105469 6.011719 -24.742188 C 6.011719 -25.894531 7.351562 -26.085938 7.351562 -26.789062 C 7.351562 -27.046875 7.226562 -27.300781 7.160156 -27.558594 C 7.417969 -27.875 7.738281 -28.261719 7.992188 -28.644531 C 8.054688 -28.644531 8.183594 -28.578125 8.246094 -28.578125 C 8.246094 -28.578125 8.183594 -28.644531 8.183594 -28.644531 C 8.953125 -30.5625 10.996094 -31.203125 12.277344 -32.863281 C 13.042969 -33.886719 15.792969 -35.867188 15.792969 -35.933594 C 16.878906 -36.316406 17.648438 -37.082031 18.605469 -37.785156 C 20.652344 -39.320312 23.59375 -40.984375 26.152344 -40.984375 C 26.535156 -40.984375 26.917969 -40.792969 27.367188 -40.792969 C 27.875 -40.792969 28.515625 -40.792969 28.515625 -41.496094 C 28.515625 -42.773438 25.445312 -45.011719 23.65625 -45.652344 C 22.953125 -45.269531 21.867188 -44.820312 21.417969 -44.371094 C 20.652344 -43.796875 20.078125 -43.03125 18.988281 -42.964844 C 18.414062 -42.964844 16.558594 -41.046875 15.472656 -40.472656 C 13.042969 -39.195312 10.804688 -36.1875 7.992188 -34.589844 C 7.738281 -34.460938 7.609375 -34.078125 7.480469 -33.824219 C 7.542969 -33.632812 7.609375 -33.503906 7.609375 -33.375 C 7.609375 -32.609375 5.882812 -32.03125 5.433594 -30.945312 C 5.242188 -30.5 4.988281 -30.113281 4.601562 -29.859375 C 3.132812 -28.707031 2.109375 -27.367188 2.109375 -25.445312 C 1.980469 -24.167969 0.640625 -23.914062 0.640625 -22.507812 C 0.640625 -21.675781 0.960938 -21.097656 0.960938 -20.394531 C 0.960938 -20.203125 0.894531 -19.949219 0.894531 -19.757812 C 0.894531 -16.816406 6.777344 -16.6875 6.777344 -16.6875 C 9.460938 -16.6875 13.683594 -18.734375 16.6875 -20.460938 C 17.710938 -21.226562 19.179688 -20.78125 20.332031 -21.417969 C 20.585938 -21.355469 20.78125 -21.355469 21.035156 -21.355469 C 21.675781 -21.355469 22.3125 -21.484375 22.953125 -21.484375 C 24.105469 -21.484375 24.488281 -20.140625 24.488281 -19.308594 C 24.488281 -17.648438 23.402344 -17.328125 22.121094 -16.625 C 21.546875 -15.535156 19.5 -15.535156 18.667969 -14.640625 C 17.648438 -13.554688 16.046875 -12.789062 14.769531 -11.957031 C 12.660156 -10.613281 10.101562 -8.054688 9.335938 -6.328125 C 8.757812 -4.988281 5.945312 -3.453125 5.945312 -1.664062 C 5.945312 0.894531 7.542969 2.558594 9.589844 2.558594 C 14.128906 2.558594 16.367188 -0.191406 17.773438 -0.574219 C 18.160156 -0.574219 18.476562 -0.0625 18.988281 -0.0625 C 18.925781 -0.0625 23.914062 -2.878906 23.914062 -3.835938 C 23.847656 -3.964844 23.785156 -4.027344 23.65625 -4.027344 C 23.335938 -4.027344 22.953125 -3.835938 22.632812 -3.773438 C 22.441406 -3.773438 22.3125 -3.964844 22.3125 -4.15625 C 22.3125 -4.410156 22.824219 -4.859375 23.082031 -5.179688 C 23.082031 -5.179688 23.082031 -5.179688 23.015625 -5.179688 C 24.359375 -6.777344 24.9375 -8.121094 25.445312 -9.527344 C 25.320312 -9.589844 25.320312 -9.78125 25.320312 -9.847656 C 25.320312 -10.996094 27.941406 -13.042969 28.195312 -13.042969 C 28.386719 -13.042969 28.707031 -12.914062 28.898438 -12.914062 C 29.601562 -12.914062 30.304688 -15.601562 30.5625 -16.113281 C 33.632812 -18.222656 35.101562 -19.054688 37.660156 -19.054688 C 38.105469 -19.054688 38.554688 -18.863281 39 -18.863281 C 39.511719 -18.863281 40.726562 -19.882812 40.726562 -20.332031 C 40.726562 -20.523438 40.664062 -20.714844 40.601562 -20.714844 Z M 19.757812 -3.390625 C 19.757812 -3.324219 19.757812 -3.261719 19.691406 -3.261719 C 19.691406 -3.261719 19.628906 -3.324219 19.628906 -3.324219 C 19.628906 -3.324219 19.628906 -3.390625 19.691406 -3.390625 C 19.691406 -3.390625 19.691406 -3.390625 19.628906 -3.390625 C 19.628906 -3.390625 19.691406 -3.390625 19.691406 -3.390625 L 19.757812 -3.453125 C 19.757812 -3.453125 19.820312 -3.453125 19.820312 -3.390625 C 19.820312 -3.390625 19.757812 -3.390625 19.757812 -3.390625 Z M 21.609375 -8.695312 C 20.84375 -8.054688 19.566406 -7.097656 19.566406 -6.136719 C 19.566406 -5.691406 17.261719 -4.09375 16.945312 -2.941406 C 16.6875 -1.980469 13.042969 -0.894531 13.105469 -0.640625 C 13.105469 -0.640625 13.105469 -0.640625 13.234375 -0.640625 C 13.105469 -0.640625 12.851562 -0.765625 12.660156 -0.765625 C 12.019531 -0.765625 11.445312 -0.382812 10.871094 -0.191406 C 10.742188 -0.511719 10.675781 -0.832031 10.675781 -1.152344 C 10.675781 -3.898438 16.238281 -8.183594 16.816406 -8.441406 C 17.582031 -8.886719 18.925781 -10.230469 18.925781 -10.230469 C 19.820312 -10.550781 21.226562 -12.019531 22.121094 -12.019531 C 22.632812 -12.019531 22.632812 -11.507812 22.632812 -11.125 C 22.632812 -10.230469 22.378906 -9.398438 21.609375 -8.695312 Z M 23.015625 -6.714844 C 23.015625 -6.714844 22.953125 -6.648438 22.953125 -6.648438 C 22.761719 -6.648438 22.824219 -6.777344 22.761719 -6.90625 C 22.824219 -6.96875 22.953125 -6.96875 22.953125 -6.96875 C 23.015625 -6.96875 23.144531 -6.839844 23.144531 -6.839844 C 23.144531 -6.777344 23.082031 -6.714844 23.015625 -6.714844 Z M 28.261719 -14.320312 C 28.261719 -14.320312 28.261719 -14.320312 28.261719 -14.386719 C 28.261719 -14.386719 28.261719 -14.386719 28.324219 -14.386719 L 28.453125 -14.386719 L 28.386719 -14.386719 C 28.386719 -14.320312 28.386719 -14.257812 28.324219 -14.257812 C 28.324219 -14.257812 28.261719 -14.320312 28.261719 -14.320312 Z M 28.261719 -14.320312 "/></g></g></g><g fill="#222222" fill-opacity="1"><g transform="translate(215.030185, 205.868965)"><g><path d="M 19.628906 -8.886719 C 19.628906 -8.886719 19.566406 -8.824219 19.566406 -8.824219 C 19.628906 -8.953125 19.757812 -9.207031 19.757812 -9.398438 C 19.757812 -9.65625 19.5 -9.972656 19.5 -10.292969 C 19.5 -11.574219 20.269531 -13.363281 20.460938 -14.769531 C 20.714844 -16.558594 20.460938 -18.414062 20.78125 -20.269531 C 20.78125 -21.417969 20.652344 -22.632812 20.652344 -23.785156 C 20.652344 -25.640625 20.90625 -27.492188 20.90625 -29.285156 C 20.90625 -29.667969 20.78125 -30.050781 20.78125 -30.5 C 20.78125 -32.992188 21.164062 -39.578125 22.632812 -39.898438 C 24.230469 -40.214844 26.34375 -40.792969 27.429688 -41.625 C 27.75 -41.558594 28.070312 -41.304688 28.386719 -41.304688 C 28.773438 -41.304688 28.964844 -41.878906 29.539062 -41.878906 C 31.96875 -42.390625 38.171875 -42.136719 38.171875 -44.949219 C 38.171875 -46.992188 34.207031 -46.992188 33.3125 -46.992188 C 29.476562 -46.992188 25.957031 -45.777344 22.1875 -45.394531 C 21.484375 -45.332031 20.78125 -45.011719 20.011719 -45.011719 C 18.925781 -45.011719 17.964844 -45.777344 16.878906 -45.777344 C 16.175781 -45.777344 14.640625 -45.460938 14.640625 -44.882812 C 14.640625 -44.5625 14.769531 -44.371094 14.769531 -44.117188 C 14.769531 -43.285156 5.5 -41.429688 4.539062 -41.238281 C 3.707031 -41.046875 2.941406 -40.921875 2.109375 -40.921875 C 1.46875 -40.921875 0.703125 -41.304688 0.0625 -41.304688 C -0.640625 -41.304688 -1.277344 -40.664062 -1.277344 -40.089844 C -1.277344 -38.042969 1.46875 -36.699219 1.664062 -36.570312 C 2.878906 -35.996094 3.964844 -35.675781 5.371094 -35.675781 C 8.3125 -35.675781 12.019531 -37.722656 14.195312 -37.722656 C 14.449219 -37.722656 15.089844 -37.339844 15.089844 -35.613281 C 15.089844 -35.101562 14.769531 -34.71875 14.769531 -34.207031 C 14.769531 -33.632812 15.21875 -32.929688 15.21875 -32.289062 C 15.21875 -31.585938 14.515625 -30.882812 14.515625 -30.179688 C 14.515625 -29.792969 14.578125 -29.410156 14.578125 -29.027344 C 14.578125 -27.429688 14.195312 -25.765625 14.195312 -24.230469 C 14.195312 -23.464844 15.023438 -22.761719 15.023438 -22.1875 C 14.386719 -20.90625 14.257812 -20.332031 14.257812 -18.414062 C 14.257812 -17.710938 14.449219 -17.007812 14.449219 -16.433594 C 14.449219 -15.535156 14.195312 -14.707031 14.195312 -13.808594 C 14.386719 -11.507812 14.003906 -8.441406 15.472656 -6.839844 L 15.34375 -7.03125 C 15.34375 -6.96875 15.28125 -6.96875 15.28125 -6.90625 C 15.28125 -6.90625 15.34375 -6.839844 15.34375 -6.839844 C 15.34375 -6.839844 15.410156 -6.90625 15.472656 -6.96875 C 15.34375 -6.839844 15.28125 -6.648438 15.28125 -6.523438 C 15.28125 -5.5 15.855469 -3.898438 16.046875 -2.878906 C 15.984375 -2.683594 15.921875 -2.492188 15.921875 -2.300781 C 15.921875 -1.34375 17.007812 -0.574219 17.648438 0.0625 C 19.179688 -0.320312 20.84375 -0.511719 20.84375 -2.175781 C 20.84375 -3.070312 20.011719 -4.347656 20.011719 -4.730469 C 20.011719 -5.308594 19.628906 -5.753906 19.628906 -6.203125 C 19.628906 -6.457031 19.820312 -6.714844 19.820312 -7.03125 C 19.820312 -7.480469 19.4375 -7.863281 19.4375 -8.246094 C 19.4375 -8.375 19.5 -8.441406 19.566406 -8.441406 L 19.5 -8.441406 C 19.566406 -8.566406 19.566406 -8.757812 19.628906 -8.886719 Z M 19.5 -8.441406 C 19.566406 -8.246094 19.566406 -8.054688 19.566406 -7.863281 C 19.566406 -8.054688 19.566406 -8.246094 19.5 -8.441406 Z M 19.628906 -8.886719 C 19.628906 -8.886719 19.566406 -8.824219 19.566406 -8.824219 C 19.566406 -8.824219 19.628906 -8.886719 19.628906 -8.886719 Z M 19.628906 -8.886719 "/></g></g></g><g fill="#222222" fill-opacity="1"><g transform="translate(157.898893, 233.862928)"><g><path d="M 5.109375 -5.3125 L 3.109375 -5.3125 L 3.109375 0 L 2.0625 0 L 2.0625 -5.3125 L 0.078125 -5.3125 L 0.078125 -6.265625 L 5.109375 -6.265625 Z M 5.109375 -5.3125 "/></g></g></g><g fill="#222222" fill-opacity="1"><g transform="translate(166.214662, 233.862928)"><g><path d="M 4.796875 0 L 3.65625 -1.890625 C 3.59375 -1.890625 3.492188 -1.890625 3.359375 -1.890625 L 1.875 -1.890625 L 1.875 0 L 0.828125 0 L 0.828125 -6.265625 L 3.359375 -6.265625 C 4.160156 -6.265625 4.78125 -6.078125 5.21875 -5.703125 C 5.664062 -5.328125 5.890625 -4.800781 5.890625 -4.125 C 5.890625 -3.625 5.773438 -3.203125 5.546875 -2.859375 C 5.328125 -2.515625 5.007812 -2.257812 4.59375 -2.09375 L 6 0 Z M 1.875 -2.84375 L 3.359375 -2.84375 C 4.378906 -2.84375 4.890625 -3.257812 4.890625 -4.09375 C 4.890625 -4.90625 4.378906 -5.3125 3.359375 -5.3125 L 1.875 -5.3125 Z M 1.875 -2.84375 "/></g></g></g><g fill="#222222" fill-opacity="1"><g transform="translate(175.819424, 233.862928)"><g><path d="M 4.875 -1.421875 L 1.703125 -1.421875 L 1.109375 0 L 0.015625 0 L 2.78125 -6.265625 L 3.859375 -6.265625 L 6.59375 0 L 5.46875 0 Z M 4.46875 -2.359375 L 3.28125 -5.140625 L 2.109375 -2.359375 Z M 4.46875 -2.359375 "/></g></g></g><g fill="#222222" fill-opacity="1"><g transform="translate(185.55846, 233.862928)"><g><path d="M 3.609375 0 L 2.53125 0 L 0.03125 -6.265625 L 1.15625 -6.265625 L 3.09375 -1.171875 L 5.046875 -6.265625 L 6.15625 -6.265625 Z M 3.609375 0 "/></g></g></g><g fill="#222222" fill-opacity="1"><g transform="translate(194.867833, 233.862928)"><g><path d="M 5.296875 -5.3125 L 1.875 -5.3125 L 1.875 -3.625 L 4.9375 -3.625 L 4.9375 -2.671875 L 1.875 -2.671875 L 1.875 -0.953125 L 5.40625 -0.953125 L 5.40625 0 L 0.828125 0 L 0.828125 -6.265625 L 5.296875 -6.265625 Z M 5.296875 -5.3125 "/></g></g></g><g fill="#222222" fill-opacity="1"><g transform="translate(203.872859, 233.862928)"><g><path d="M 1.875 -0.953125 L 4.59375 -0.953125 L 4.59375 0 L 0.828125 0 L 0.828125 -6.265625 L 1.875 -6.265625 Z M 1.875 -0.953125 "/></g></g></g><g fill="#222222" fill-opacity="1"><g transform="translate(211.785824, 233.862928)"><g><path d="M 2.890625 -6.3125 C 3.691406 -6.3125 4.421875 -6.097656 5.078125 -5.671875 L 4.640625 -4.734375 C 4.003906 -5.117188 3.390625 -5.3125 2.796875 -5.3125 C 2.484375 -5.3125 2.234375 -5.253906 2.046875 -5.140625 C 1.867188 -5.035156 1.78125 -4.875 1.78125 -4.65625 C 1.78125 -4.445312 1.863281 -4.269531 2.03125 -4.125 C 2.195312 -3.976562 2.40625 -3.867188 2.65625 -3.796875 C 2.90625 -3.734375 3.175781 -3.648438 3.46875 -3.546875 C 3.757812 -3.441406 4.03125 -3.332031 4.28125 -3.21875 C 4.539062 -3.101562 4.75 -2.921875 4.90625 -2.671875 C 5.070312 -2.421875 5.15625 -2.117188 5.15625 -1.765625 C 5.15625 -1.222656 4.9375 -0.785156 4.5 -0.453125 C 4.0625 -0.128906 3.492188 0.03125 2.796875 0.03125 C 2.316406 0.03125 1.851562 -0.0546875 1.40625 -0.234375 C 0.957031 -0.410156 0.566406 -0.648438 0.234375 -0.953125 L 0.6875 -1.875 C 1 -1.582031 1.34375 -1.351562 1.71875 -1.1875 C 2.101562 -1.03125 2.46875 -0.953125 2.8125 -0.953125 C 3.175781 -0.953125 3.460938 -1.019531 3.671875 -1.15625 C 3.878906 -1.289062 3.984375 -1.476562 3.984375 -1.71875 C 3.984375 -1.9375 3.898438 -2.117188 3.734375 -2.265625 C 3.566406 -2.410156 3.359375 -2.515625 3.109375 -2.578125 C 2.859375 -2.648438 2.585938 -2.734375 2.296875 -2.828125 C 2.003906 -2.929688 1.726562 -3.035156 1.46875 -3.140625 C 1.21875 -3.253906 1.007812 -3.429688 0.84375 -3.671875 C 0.675781 -3.921875 0.59375 -4.21875 0.59375 -4.5625 C 0.59375 -5.09375 0.800781 -5.515625 1.21875 -5.828125 C 1.644531 -6.148438 2.203125 -6.3125 2.890625 -6.3125 Z M 2.890625 -6.3125 "/></g></g></g></svg>