<svg xmlns="http://www.w3.org/2000/svg" width="375" viewBox="0 0 375 375" height="375" version="1.0"><defs><clipPath id="a"><path d="M 141.921875 130.347656 L 231.921875 130.347656 L 231.921875 220.347656 L 141.921875 220.347656 Z M 141.921875 130.347656"/></clipPath><clipPath id="b"><path d="M 147.429688 136.042969 L 237.429688 136.042969 L 237.429688 226.042969 L 147.429688 226.042969 Z M 147.429688 136.042969"/></clipPath><clipPath id="c"><path d="M 137.746094 139.839844 L 223.996094 139.839844 L 223.996094 226.089844 L 137.746094 226.089844 Z M 137.746094 139.839844"/></clipPath></defs><path fill="#FFF" d="M-37.5 -37.5H412.5V412.5H-37.5z"/><path fill="#FFF" d="M-37.5 -37.5H412.5V412.5H-37.5z"/><g clip-path="url(#a)"><path d="M 186.921875 220.347656 C 162.101562 220.347656 141.921875 200.167969 141.921875 175.347656 C 141.921875 150.523438 162.101562 130.347656 186.921875 130.347656 C 211.742188 130.347656 231.921875 150.523438 231.921875 175.347656 C 231.921875 200.167969 211.742188 220.347656 186.921875 220.347656 Z M 186.921875 133.046875 C 163.59375 133.046875 144.621094 152.019531 144.621094 175.347656 C 144.621094 198.675781 163.613281 217.644531 186.921875 217.644531 C 210.25 217.644531 229.222656 198.65625 229.222656 175.347656 C 229.222656 152.019531 210.25 133.046875 186.921875 133.046875 Z M 186.921875 133.046875"/></g><path d="M 186.921875 207.746094 C 169.046875 207.746094 154.523438 193.21875 154.523438 175.347656 C 154.523438 157.472656 169.046875 142.964844 186.921875 142.964844 C 204.796875 142.964844 219.304688 157.488281 219.304688 175.347656 C 219.320312 193.203125 204.796875 207.746094 186.921875 207.746094 Z M 186.921875 145.375 C 170.398438 145.375 156.96875 158.820312 156.96875 175.328125 C 156.96875 191.832031 170.398438 205.296875 186.921875 205.296875 C 203.445312 205.296875 216.875 191.851562 216.875 175.347656 C 216.875 158.839844 203.445312 145.375 186.921875 145.375 Z M 186.921875 145.375"/><g clip-path="url(#b)"><path fill="#4793D7" d="M 192.429688 226.042969 C 167.605469 226.042969 147.429688 205.863281 147.429688 181.042969 C 147.429688 156.21875 167.605469 136.042969 192.429688 136.042969 C 217.25 136.042969 237.429688 156.21875 237.429688 181.042969 C 237.429688 205.863281 217.25 226.042969 192.429688 226.042969 Z M 192.429688 138.742188 C 169.101562 138.742188 150.128906 157.714844 150.128906 181.042969 C 150.128906 204.371094 169.117188 223.34375 192.429688 223.34375 C 215.757812 223.34375 234.726562 204.351562 234.726562 181.042969 C 234.726562 157.714844 215.757812 138.742188 192.429688 138.742188 Z M 192.429688 138.742188"/></g><path fill="#4793D7" d="M 192.429688 213.441406 C 174.554688 213.441406 160.027344 198.917969 160.027344 181.042969 C 160.027344 163.167969 174.554688 148.660156 192.429688 148.660156 C 210.300781 148.660156 224.808594 163.1875 224.808594 181.042969 C 224.828125 198.898438 210.300781 213.441406 192.429688 213.441406 Z M 192.429688 151.070312 C 175.902344 151.070312 162.476562 164.519531 162.476562 181.023438 C 162.476562 197.53125 175.902344 210.996094 192.429688 210.996094 C 208.953125 210.996094 222.378906 197.546875 222.378906 181.042969 C 222.378906 164.535156 208.953125 151.070312 192.429688 151.070312 Z M 192.429688 151.070312"/><g clip-path="url(#c)"><path d="M 180.871094 226.089844 C 157.082031 226.089844 137.746094 206.753906 137.746094 182.964844 C 137.746094 159.175781 157.082031 139.839844 180.871094 139.839844 C 204.65625 139.839844 223.996094 159.175781 223.996094 182.964844 C 223.996094 206.753906 204.65625 226.089844 180.871094 226.089844 Z M 180.871094 142.425781 C 158.511719 142.425781 140.332031 160.609375 140.332031 182.964844 C 140.332031 205.320312 158.53125 223.503906 180.871094 223.503906 C 203.226562 223.503906 221.40625 205.304688 221.40625 182.964844 C 221.40625 160.609375 203.226562 142.425781 180.871094 142.425781 Z M 180.871094 142.425781"/></g><path d="M 180.871094 214.015625 C 163.742188 214.015625 149.820312 200.09375 149.820312 182.964844 C 149.820312 165.835938 163.742188 151.933594 180.871094 151.933594 C 198 151.933594 211.902344 165.851562 211.902344 182.964844 C 211.917969 200.078125 198 214.015625 180.871094 214.015625 Z M 180.871094 154.242188 C 165.035156 154.242188 152.164062 167.128906 152.164062 182.949219 C 152.164062 198.765625 165.035156 211.667969 180.871094 211.667969 C 196.707031 211.667969 209.574219 198.78125 209.574219 182.964844 C 209.574219 167.144531 196.707031 154.242188 180.871094 154.242188 Z M 180.871094 154.242188"/></svg>