<svg xmlns="http://www.w3.org/2000/svg" width="375" viewBox="0 0 375 375" height="375" version="1.0"><defs><clipPath id="a"><path d="M 141.757812 96.125 L 231.757812 96.125 L 231.757812 186.125 L 141.757812 186.125 Z M 141.757812 96.125"/></clipPath><clipPath id="b"><path d="M 147.261719 101.820312 L 237.261719 101.820312 L 237.261719 191.820312 L 147.261719 191.820312 Z M 147.261719 101.820312"/></clipPath><clipPath id="c"><path d="M 137.578125 105.617188 L 223.828125 105.617188 L 223.828125 191.867188 L 137.578125 191.867188 Z M 137.578125 105.617188"/></clipPath></defs><path fill="#FFF" d="M-37.5 -37.5H412.5V412.5H-37.5z"/><path fill="#FFF" d="M-37.5 -37.5H412.5V412.5H-37.5z"/><g><g><g><path d="M 12.65625 -3.015625 L 12.65625 0 L 2.03125 0 L 2.03125 -24.375 L 12.3125 -24.375 L 12.3125 -21.484375 L 5.046875 -21.484375 L 5.34375 -20.640625 L 5.34375 -15.46875 L 5.046875 -14.625 L 11.90625 -14.625 L 11.90625 -11.609375 L 5.078125 -11.609375 L 5.34375 -10.828125 L 5.34375 -3.859375 L 5.046875 -3.015625 Z M 12.65625 -3.015625" transform="translate(173.625 241.139)"/></g></g></g><g><g><g><path d="M 5.0625 -16.03125 C 5.03125 -15.25 5.015625 -14.035156 5.015625 -12.390625 C 5.015625 -10.742188 5.03125 -9.523438 5.0625 -8.734375 C 5.09375 -7.941406 5.1875 -7.039062 5.34375 -6.03125 C 5.5 -5.03125 5.769531 -4.328125 6.15625 -3.921875 C 6.539062 -3.515625 7.0625 -3.3125 7.71875 -3.3125 C 8.375 -3.3125 9.265625 -3.363281 10.390625 -3.46875 C 11.515625 -3.570312 12.25 -3.632812 12.59375 -3.65625 L 12.59375 -0.375 C 12.382812 -0.351562 11.707031 -0.242188 10.5625 -0.046875 C 9.425781 0.140625 8.519531 0.234375 7.84375 0.234375 C 7.175781 0.234375 6.570312 0.160156 6.03125 0.015625 C 5.488281 -0.128906 5.015625 -0.304688 4.609375 -0.515625 C 4.203125 -0.734375 3.835938 -1.0625 3.515625 -1.5 C 3.203125 -1.945312 2.941406 -2.347656 2.734375 -2.703125 C 2.535156 -3.066406 2.367188 -3.59375 2.234375 -4.28125 C 2.097656 -4.96875 1.992188 -5.535156 1.921875 -5.984375 C 1.859375 -6.441406 1.800781 -7.113281 1.75 -8 C 1.707031 -8.894531 1.6875 -9.585938 1.6875 -10.078125 L 1.6875 -14.65625 C 1.6875 -16.28125 1.742188 -17.46875 1.859375 -18.21875 C 1.972656 -18.976562 2.097656 -19.695312 2.234375 -20.375 C 2.367188 -21.050781 2.535156 -21.5625 2.734375 -21.90625 C 2.941406 -22.257812 3.203125 -22.648438 3.515625 -23.078125 C 3.835938 -23.503906 4.203125 -23.820312 4.609375 -24.03125 C 5.597656 -24.53125 6.679688 -24.78125 7.859375 -24.78125 L 12.5625 -23.6875 C 12.375 -22.382812 12.035156 -21.570312 11.546875 -21.25 C 11.273438 -21.09375 10.890625 -21.015625 10.390625 -21.015625 C 9.890625 -21.015625 9.300781 -21.082031 8.625 -21.21875 L 7.6875 -21.453125 C 7.050781 -21.453125 6.539062 -21.25 6.15625 -20.84375 C 5.769531 -20.4375 5.5 -19.726562 5.34375 -18.71875 C 5.1875 -17.71875 5.09375 -16.820312 5.0625 -16.03125 Z M 5.0625 -16.03125" transform="translate(187.801 241.139)"/></g></g></g><g fill="#4793D7"><g><g><path d="M 7.28125 0 L 1.5625 0 L 1.5625 -15.0625 L 7.078125 -15.0625 L 7.078125 -13.953125 L 2.859375 -13.953125 L 2.953125 -13.4375 L 2.953125 -9.265625 L 2.859375 -8.75 L 6.78125 -8.75 L 6.78125 -7.546875 L 2.859375 -7.546875 L 2.953125 -7.03125 L 2.953125 -1.71875 L 2.859375 -1.1875 L 7.28125 -1.1875 Z M 7.28125 0" transform="translate(112.863 275.44)"/></g></g></g><g fill="#4793D7"><g><g><path d="M 10.625 0 L 10.546875 0 C 9.941406 0 9.59375 -0.0390625 9.5 -0.125 C 9.40625 -0.207031 9.347656 -0.488281 9.328125 -0.96875 L 9.421875 -12.09375 L 9.1875 -12.09375 L 9.09375 -11.71875 L 6.984375 -7.265625 L 6.484375 -6.296875 L 5.65625 -6.296875 L 5.125 -7.234375 L 2.96875 -11.71875 L 2.90625 -12.09375 L 2.703125 -12.09375 L 2.765625 -0.96875 C 2.765625 -0.488281 2.710938 -0.207031 2.609375 -0.125 C 2.515625 -0.0390625 2.164062 0 1.5625 0 L 1.484375 0 L 1.484375 -15.0625 L 1.59375 -15.0625 C 2.1875 -15.0625 2.550781 -15.019531 2.6875 -14.9375 C 2.820312 -14.851562 3.007812 -14.570312 3.25 -14.09375 L 5.90625 -8.375 L 6.21875 -8.375 L 9.328125 -15.0625 L 9.4375 -15.0625 C 10.03125 -15.0625 10.375 -15.019531 10.46875 -14.9375 C 10.570312 -14.851562 10.625 -14.570312 10.625 -14.09375 Z M 10.625 0" transform="translate(125.101 275.44)"/></g></g></g><g fill="#4793D7"><g><g><path d="M 2.890625 0 L 2.78125 0 C 2.1875 0 1.832031 -0.0390625 1.71875 -0.125 C 1.613281 -0.207031 1.5625 -0.488281 1.5625 -0.96875 L 1.5625 -15.0625 L 1.671875 -15.0625 C 2.273438 -15.0625 2.628906 -15.019531 2.734375 -14.9375 C 2.835938 -14.851562 2.890625 -14.570312 2.890625 -14.09375 Z M 2.890625 0" transform="translate(141.503 275.44)"/></g></g></g><g fill="#4793D7"><g><g><path d="M 0.671875 -11.09375 C 1.003906 -12.289062 1.171875 -13.113281 1.171875 -13.5625 L 1.109375 -14.375 C 1.109375 -14.632812 1.203125 -14.851562 1.390625 -15.03125 C 1.578125 -15.21875 1.800781 -15.3125 2.0625 -15.3125 C 2.332031 -15.3125 2.5625 -15.21875 2.75 -15.03125 C 2.9375 -14.84375 3.03125 -14.613281 3.03125 -14.34375 C 3.03125 -14.070312 2.898438 -13.617188 2.640625 -12.984375 C 2.390625 -12.359375 2.140625 -11.796875 1.890625 -11.296875 L 1.484375 -10.5625 Z M 0.671875 -11.09375" transform="translate(150.143 275.44)"/></g></g></g><g fill="#4793D7"><g><g><path d="M 7.390625 -4.875 L 7.390625 -4.421875 C 7.390625 -3.023438 7.265625 -2.039062 7.015625 -1.46875 C 6.503906 -0.40625 5.4375 0.128906 3.8125 0.140625 L 0.78125 -0.265625 L 0.78125 -1.4375 L 3.828125 -1.234375 C 4.773438 -1.234375 5.382812 -1.441406 5.65625 -1.859375 C 5.75 -2.023438 5.820312 -2.160156 5.875 -2.265625 C 5.9375 -2.367188 5.976562 -2.546875 6 -2.796875 C 6.019531 -3.054688 6.03125 -3.242188 6.03125 -3.359375 C 6.039062 -3.472656 6.039062 -3.679688 6.03125 -3.984375 C 6.03125 -4.296875 6.03125 -4.507812 6.03125 -4.625 C 6.03125 -5.3125 5.414062 -6.179688 4.1875 -7.234375 C 3.6875 -7.671875 3.175781 -8.117188 2.65625 -8.578125 C 2.144531 -9.035156 1.707031 -9.550781 1.34375 -10.125 C 0.988281 -10.695312 0.8125 -11.226562 0.8125 -11.71875 C 0.8125 -12.21875 0.816406 -12.554688 0.828125 -12.734375 C 0.835938 -12.910156 0.859375 -13.15625 0.890625 -13.46875 C 0.921875 -13.78125 0.976562 -14 1.0625 -14.125 C 1.144531 -14.257812 1.265625 -14.425781 1.421875 -14.625 C 1.585938 -14.820312 1.796875 -14.953125 2.046875 -15.015625 C 2.734375 -15.210938 3.453125 -15.3125 4.203125 -15.3125 L 6.421875 -14.890625 C 6.421875 -14.359375 6.28125 -14.070312 6 -14.03125 C 5.894531 -14.019531 5.726562 -14.019531 5.5 -14.03125 L 4.328125 -14.171875 C 3.328125 -14.171875 2.707031 -13.953125 2.46875 -13.515625 C 2.332031 -13.296875 2.242188 -13.078125 2.203125 -12.859375 C 2.171875 -12.648438 2.15625 -12.351562 2.15625 -11.96875 C 2.15625 -11.59375 2.28125 -11.203125 2.53125 -10.796875 C 2.789062 -10.398438 3.113281 -10.039062 3.5 -9.71875 C 3.894531 -9.394531 4.316406 -9.035156 4.765625 -8.640625 C 5.210938 -8.253906 5.628906 -7.878906 6.015625 -7.515625 C 6.410156 -7.160156 6.738281 -6.75 7 -6.28125 C 7.257812 -5.820312 7.390625 -5.351562 7.390625 -4.875 Z M 7.390625 -4.875" transform="translate(157.78 275.44)"/></g></g></g><g fill="#4793D7"><g><g><path d="M 2.953125 0 L 2.78125 0 L 2.78125 -13.4375 L 2.859375 -13.953125 L 0.515625 -13.953125 L 0.515625 -15.0625 L 6.4375 -15.0625 L 6.4375 -13.953125 L 4.078125 -13.953125 L 4.15625 -13.4375 L 4.15625 -0.96875 C 4.15625 -0.488281 4.101562 -0.207031 4 -0.125 C 3.894531 -0.0390625 3.546875 0 2.953125 0 Z M 2.953125 0" transform="translate(178.303 275.44)"/></g></g></g><g fill="#4793D7"><g><g><path d="M 8.625 0 C 7.90625 0 7.460938 -0.0390625 7.296875 -0.125 C 7.128906 -0.207031 6.941406 -0.488281 6.734375 -0.96875 L 3.90625 -7.15625 L 2.796875 -7.15625 L 2.890625 -6.625 L 2.890625 -0.96875 L 2.90625 -0.96875 C 2.90625 -0.488281 2.851562 -0.207031 2.75 -0.125 C 2.644531 -0.0390625 2.289062 0 1.6875 0 L 1.5625 0 L 1.5625 -15.109375 L 3.953125 -15.3125 C 5.398438 -15.3125 6.332031 -15.035156 6.75 -14.484375 C 6.925781 -14.253906 7.054688 -14.054688 7.140625 -13.890625 C 7.222656 -13.722656 7.285156 -13.46875 7.328125 -13.125 C 7.378906 -12.65625 7.40625 -12.085938 7.40625 -11.421875 C 7.40625 -10.765625 7.394531 -10.265625 7.375 -9.921875 C 7.351562 -9.585938 7.300781 -9.234375 7.21875 -8.859375 C 7.132812 -8.492188 7.015625 -8.203125 6.859375 -7.984375 C 6.515625 -7.503906 5.972656 -7.234375 5.234375 -7.171875 L 8.703125 0 Z M 3.953125 -8.34375 C 4.660156 -8.34375 5.210938 -8.476562 5.609375 -8.75 C 5.847656 -8.925781 5.988281 -9.382812 6.03125 -10.125 C 6.039062 -10.351562 6.046875 -10.722656 6.046875 -11.234375 C 6.046875 -11.753906 6.035156 -12.125 6.015625 -12.34375 C 6.003906 -12.5625 5.96875 -12.816406 5.90625 -13.109375 C 5.84375 -13.410156 5.742188 -13.613281 5.609375 -13.71875 C 5.210938 -13.988281 4.660156 -14.125 3.953125 -14.125 L 2.890625 -14.125 L 2.890625 -8.875 L 2.796875 -8.34375 Z M 3.953125 -8.34375" transform="translate(189.454 275.44)"/></g></g></g><g fill="#4793D7"><g><g><path d="M 8.46875 0 C 7.84375 0 7.46875 -0.0390625 7.34375 -0.125 C 7.226562 -0.207031 7.117188 -0.488281 7.015625 -0.96875 L 6.09375 -5.125 L 2.90625 -5.125 L 1.78125 0 C 1.550781 0 1.351562 0 1.1875 0 C 1.019531 0 0.878906 -0.0078125 0.765625 -0.03125 C 0.660156 -0.0625 0.59375 -0.0976562 0.5625 -0.140625 C 0.53125 -0.179688 0.515625 -0.25 0.515625 -0.34375 C 0.515625 -0.445312 1.617188 -5.351562 3.828125 -15.0625 L 5.171875 -15.0625 L 8.578125 0 Z M 5.9375 -6.28125 L 5.75 -6.796875 L 4.703125 -12.390625 L 4.3125 -12.390625 L 3.28125 -6.796875 L 3.09375 -6.28125 Z M 5.9375 -6.28125" transform="translate(203.115 275.44)"/></g></g></g><g fill="#4793D7"><g><g><path d="M 0.84375 -15.0625 C 1.351562 -15.0625 1.664062 -15.019531 1.78125 -14.9375 C 1.894531 -14.851562 2 -14.570312 2.09375 -14.09375 L 4.359375 -2.65625 L 4.625 -2.65625 L 6.90625 -15.0625 L 7.21875 -15.0625 C 7.601562 -15.0625 7.851562 -15.046875 7.96875 -15.015625 C 8.09375 -14.992188 8.15625 -14.90625 8.15625 -14.75 C 8.15625 -14.019531 7.125 -9.101562 5.0625 0 L 3.71875 0 L 0.515625 -15.0625 Z M 0.84375 -15.0625" transform="translate(216.4 275.44)"/></g></g></g><g fill="#4793D7"><g><g><path d="M 7.28125 0 L 1.5625 0 L 1.5625 -15.0625 L 7.078125 -15.0625 L 7.078125 -13.953125 L 2.859375 -13.953125 L 2.953125 -13.4375 L 2.953125 -9.265625 L 2.859375 -8.75 L 6.78125 -8.75 L 6.78125 -7.546875 L 2.859375 -7.546875 L 2.953125 -7.03125 L 2.953125 -1.71875 L 2.859375 -1.1875 L 7.28125 -1.1875 Z M 7.28125 0" transform="translate(229.286 275.44)"/></g></g></g><g fill="#4793D7"><g><g><path d="M 6.78125 0 L 1.5625 0 L 1.5625 -15.0625 L 1.734375 -15.0625 C 2.335938 -15.0625 2.691406 -15.019531 2.796875 -14.9375 C 2.898438 -14.851562 2.953125 -14.570312 2.953125 -14.09375 L 2.953125 -1.71875 L 2.859375 -1.1875 L 5.5625 -1.1875 C 6.164062 -1.1875 6.519531 -1.144531 6.625 -1.0625 C 6.726562 -0.976562 6.78125 -0.703125 6.78125 -0.234375 Z M 6.78125 0" transform="translate(241.525 275.44)"/></g></g></g><g fill="#4793D7"><g><g><path d="M 7.390625 -4.875 L 7.390625 -4.421875 C 7.390625 -3.023438 7.265625 -2.039062 7.015625 -1.46875 C 6.503906 -0.40625 5.4375 0.128906 3.8125 0.140625 L 0.78125 -0.265625 L 0.78125 -1.4375 L 3.828125 -1.234375 C 4.773438 -1.234375 5.382812 -1.441406 5.65625 -1.859375 C 5.75 -2.023438 5.820312 -2.160156 5.875 -2.265625 C 5.9375 -2.367188 5.976562 -2.546875 6 -2.796875 C 6.019531 -3.054688 6.03125 -3.242188 6.03125 -3.359375 C 6.039062 -3.472656 6.039062 -3.679688 6.03125 -3.984375 C 6.03125 -4.296875 6.03125 -4.507812 6.03125 -4.625 C 6.03125 -5.3125 5.414062 -6.179688 4.1875 -7.234375 C 3.6875 -7.671875 3.175781 -8.117188 2.65625 -8.578125 C 2.144531 -9.035156 1.707031 -9.550781 1.34375 -10.125 C 0.988281 -10.695312 0.8125 -11.226562 0.8125 -11.71875 C 0.8125 -12.21875 0.816406 -12.554688 0.828125 -12.734375 C 0.835938 -12.910156 0.859375 -13.15625 0.890625 -13.46875 C 0.921875 -13.78125 0.976562 -14 1.0625 -14.125 C 1.144531 -14.257812 1.265625 -14.425781 1.421875 -14.625 C 1.585938 -14.820312 1.796875 -14.953125 2.046875 -15.015625 C 2.734375 -15.210938 3.453125 -15.3125 4.203125 -15.3125 L 6.421875 -14.890625 C 6.421875 -14.359375 6.28125 -14.070312 6 -14.03125 C 5.894531 -14.019531 5.726562 -14.019531 5.5 -14.03125 L 4.328125 -14.171875 C 3.328125 -14.171875 2.707031 -13.953125 2.46875 -13.515625 C 2.332031 -13.296875 2.242188 -13.078125 2.203125 -12.859375 C 2.171875 -12.648438 2.15625 -12.351562 2.15625 -11.96875 C 2.15625 -11.59375 2.28125 -11.203125 2.53125 -10.796875 C 2.789062 -10.398438 3.113281 -10.039062 3.5 -9.71875 C 3.894531 -9.394531 4.316406 -9.035156 4.765625 -8.640625 C 5.210938 -8.253906 5.628906 -7.878906 6.015625 -7.515625 C 6.410156 -7.160156 6.738281 -6.75 7 -6.28125 C 7.257812 -5.820312 7.390625 -5.351562 7.390625 -4.875 Z M 7.390625 -4.875" transform="translate(253.261 275.44)"/></g></g></g><g clip-path="url(#a)"><path d="M 186.757812 186.125 C 161.933594 186.125 141.757812 165.945312 141.757812 141.125 C 141.757812 116.304688 161.933594 96.125 186.757812 96.125 C 211.578125 96.125 231.757812 116.304688 231.757812 141.125 C 231.757812 165.945312 211.578125 186.125 186.757812 186.125 Z M 186.757812 98.824219 C 163.429688 98.824219 144.457031 117.796875 144.457031 141.125 C 144.457031 164.453125 163.445312 183.425781 186.757812 183.425781 C 210.085938 183.425781 229.054688 164.433594 229.054688 141.125 C 229.054688 117.796875 210.085938 98.824219 186.757812 98.824219 Z M 186.757812 98.824219"/></g><path d="M 186.757812 173.523438 C 168.882812 173.523438 154.355469 159 154.355469 141.125 C 154.355469 123.25 168.882812 108.742188 186.757812 108.742188 C 204.628906 108.742188 219.136719 123.269531 219.136719 141.125 C 219.15625 158.980469 204.628906 173.523438 186.757812 173.523438 Z M 186.757812 111.15625 C 170.234375 111.15625 156.804688 124.601562 156.804688 141.105469 C 156.804688 157.613281 170.234375 171.078125 186.757812 171.078125 C 203.28125 171.078125 216.707031 157.632812 216.707031 141.125 C 216.707031 124.617188 203.28125 111.15625 186.757812 111.15625 Z M 186.757812 111.15625"/><g clip-path="url(#b)"><path fill="#4793D7" d="M 192.261719 191.820312 C 167.441406 191.820312 147.261719 171.644531 147.261719 146.820312 C 147.261719 122 167.441406 101.820312 192.261719 101.820312 C 217.085938 101.820312 237.261719 122 237.261719 146.820312 C 237.261719 171.644531 217.085938 191.820312 192.261719 191.820312 Z M 192.261719 104.519531 C 168.933594 104.519531 149.960938 123.492188 149.960938 146.820312 C 149.960938 170.148438 168.953125 189.121094 192.261719 189.121094 C 215.589844 189.121094 234.5625 170.132812 234.5625 146.820312 C 234.5625 123.492188 215.589844 104.519531 192.261719 104.519531 Z M 192.261719 104.519531"/></g><path fill="#4793D7" d="M 192.261719 179.222656 C 174.390625 179.222656 159.863281 164.695312 159.863281 146.820312 C 159.863281 128.945312 174.390625 114.4375 192.261719 114.4375 C 210.136719 114.4375 224.644531 128.964844 224.644531 146.820312 C 224.664062 164.675781 210.136719 179.222656 192.261719 179.222656 Z M 192.261719 116.851562 C 175.738281 116.851562 162.3125 130.296875 162.3125 146.804688 C 162.3125 163.308594 175.738281 176.773438 192.261719 176.773438 C 208.785156 176.773438 222.214844 163.328125 222.214844 146.820312 C 222.214844 130.316406 208.785156 116.851562 192.261719 116.851562 Z M 192.261719 116.851562"/><g clip-path="url(#c)"><path d="M 180.703125 191.867188 C 156.917969 191.867188 137.578125 172.53125 137.578125 148.742188 C 137.578125 124.957031 156.917969 105.617188 180.703125 105.617188 C 204.492188 105.617188 223.828125 124.957031 223.828125 148.742188 C 223.828125 172.53125 204.492188 191.867188 180.703125 191.867188 Z M 180.703125 108.207031 C 158.347656 108.207031 140.167969 126.386719 140.167969 148.742188 C 140.167969 171.101562 158.367188 189.28125 180.703125 189.28125 C 203.058594 189.28125 221.242188 171.082031 221.242188 148.742188 C 221.242188 126.386719 203.058594 108.207031 180.703125 108.207031 Z M 180.703125 108.207031"/></g><path d="M 180.703125 179.792969 C 163.574219 179.792969 149.652344 165.871094 149.652344 148.742188 C 149.652344 131.613281 163.574219 117.710938 180.703125 117.710938 C 197.832031 117.710938 211.738281 131.632812 211.738281 148.742188 C 211.753906 165.855469 197.832031 179.792969 180.703125 179.792969 Z M 180.703125 120.023438 C 164.867188 120.023438 152 132.90625 152 148.726562 C 152 164.542969 164.867188 177.449219 180.703125 177.449219 C 196.539062 177.449219 209.410156 164.5625 209.410156 148.742188 C 209.410156 132.925781 196.539062 120.023438 180.703125 120.023438 Z M 180.703125 120.023438"/></svg>