<svg xmlns="http://www.w3.org/2000/svg" width="375" viewBox="0 0 375 375" height="375" version="1.0"><path fill="#FFF" d="M-37.5 -37.5H412.5V412.5H-37.5z"/><path fill="#FFF" d="M-37.5 -37.5H412.5V412.5H-37.5z"/><path fill="#F5F5EF" d="M-37.5 -37.5H412.5V412.5H-37.5z"/><g><g><g><path d="M 33.628906 -38.957031 C 27.726562 -38.957031 20.566406 -33.867188 20.566406 -29.644531 C 20.566406 -27.386719 22.375 -25.707031 25.289062 -25.128906 C 12.382812 -19.910156 0.683594 -9.496094 0.683594 -1.808594 C 0.683594 3.042969 3.644531 5.535156 9.363281 5.535156 C 17.574219 5.535156 29.40625 -2.097656 36.75 -8.867188 C 36.933594 -9.050781 37.039062 -9.285156 37.039062 -9.546875 C 37.039062 -10.046875 36.59375 -10.492188 36.097656 -10.492188 C 35.859375 -10.492188 35.648438 -10.414062 35.441406 -10.257812 C 28.253906 -3.621094 17 3.644531 9.363281 3.644531 C 4.667969 3.644531 2.570312 1.96875 2.570312 -1.808594 C 2.570312 -9.523438 17.15625 -21.351562 31.609375 -25.316406 L 31.585938 -25.316406 C 32.554688 -25.472656 33.5 -25.683594 34.417969 -25.917969 C 34.96875 -26.101562 35.230469 -26.546875 35.097656 -27.070312 C 34.941406 -27.675781 34.546875 -27.9375 33.972656 -27.832031 C 33.027344 -27.648438 32.054688 -27.414062 31.113281 -27.152344 L 31.136719 -27.152344 C 29.828125 -26.941406 28.671875 -26.835938 27.519531 -26.835938 C 24.5 -26.835938 22.457031 -27.988281 22.457031 -29.644531 C 22.457031 -32.765625 28.910156 -37.066406 33.628906 -37.066406 C 35.257812 -37.066406 36.226562 -35.730469 36.253906 -33.5 C 36.253906 -32.972656 36.671875 -32.554688 37.199219 -32.554688 C 37.695312 -32.554688 38.140625 -33 38.140625 -33.5 C 38.089844 -36.804688 36.304688 -38.957031 33.628906 -38.957031 Z M 33.628906 -38.957031" transform="translate(118.168 167.41)"/></g></g></g><g><g><g><path d="M 46.457031 -10.652344 C 46.25 -10.652344 46.089844 -10.597656 45.90625 -10.492188 C 36.933594 -4.355469 32.082031 -1.863281 29.144531 -1.863281 C 28.226562 -1.863281 27.804688 -2.097656 27.804688 -2.78125 C 27.804688 -3.253906 27.910156 -3.960938 27.988281 -4.695312 C 28.09375 -5.351562 28.171875 -6.035156 28.171875 -6.636719 C 28.171875 -7.894531 27.492188 -8.628906 26.3125 -8.628906 C 24.578125 -8.628906 21.351562 -6.664062 18.675781 -5.0625 L 16.816406 -3.933594 C 16.371094 -3.671875 16.054688 -3.988281 16.34375 -4.40625 C 16.683594 -4.984375 17.128906 -5.640625 17.65625 -6.453125 C 20.566406 -10.835938 21.457031 -12.589844 21.457031 -13.980469 C 21.457031 -15.265625 20.460938 -16.027344 19.253906 -16.027344 C 16.5 -16.027344 12.855469 -13.640625 3.726562 -6.164062 C 2.074219 -4.828125 0.707031 -3.726562 -0.367188 -2.886719 C -1.390625 -2.097656 -1.523438 -2.542969 -0.917969 -3.410156 C 0.8125 -5.929688 3.671875 -9.523438 6.820312 -12.40625 C 7.03125 -12.589844 7.136719 -12.855469 7.136719 -13.117188 C 7.136719 -13.640625 6.714844 -14.0625 6.191406 -14.0625 C 5.953125 -14.0625 5.71875 -13.980469 5.5625 -13.824219 C 1.207031 -9.863281 -4.566406 -2.257812 -4.511719 -0.5 C -4.511719 0.339844 -4.066406 0.867188 -3.277344 0.945312 C -2.28125 0.996094 -0.8125 -0.0273438 4.933594 -4.722656 C 10.203125 -9.023438 16.394531 -14.191406 19.125 -14.191406 C 19.4375 -14.191406 19.570312 -14.085938 19.570312 -13.851562 C 19.570312 -13.0625 18.625 -11.304688 16.082031 -7.503906 C 13.851562 -4.117188 13.246094 -2.992188 13.246094 -2.097656 C 13.246094 -1.335938 13.667969 -0.839844 14.347656 -0.839844 C 15.164062 -0.839844 16.265625 -1.390625 19.648438 -3.4375 C 23.714844 -5.875 25.316406 -6.769531 26.050781 -6.769531 C 26.257812 -6.769531 26.285156 -6.664062 26.285156 -6.53125 C 26.285156 -6.164062 26.207031 -5.585938 26.128906 -4.933594 C 26.023438 -4.195312 25.917969 -3.359375 25.917969 -2.542969 C 25.917969 -0.96875 27.175781 0.0273438 29.144531 0.0273438 C 32.554688 0.0273438 37.566406 -2.492188 46.984375 -8.917969 C 47.246094 -9.101562 47.402344 -9.390625 47.402344 -9.707031 C 47.402344 -10.230469 46.984375 -10.652344 46.457031 -10.652344 Z M 46.457031 -10.652344" transform="translate(151.849 167.41)"/></g></g></g><g><g><g><path d="M 8.605469 -15.003906 C 8.894531 -15.003906 9.179688 -15.136719 9.363281 -15.371094 C 9.445312 -15.503906 9.601562 -15.6875 9.757812 -15.921875 C 10.152344 -16.421875 10.625 -17.078125 10.859375 -17.339844 C 10.992188 -17.523438 11.070312 -17.734375 11.070312 -17.941406 C 11.070312 -18.46875 10.652344 -18.886719 10.125 -18.886719 C 9.835938 -18.886719 9.574219 -18.757812 9.390625 -18.546875 L 7.871094 -16.527344 C 7.738281 -16.371094 7.660156 -16.160156 7.660156 -15.949219 C 7.660156 -15.425781 8.078125 -15.003906 8.605469 -15.003906 Z M 0.996094 0.945312 C 4.984375 0.945312 17.574219 -4.878906 23.925781 -8.894531 C 24.1875 -9.050781 24.371094 -9.390625 24.371094 -9.707031 C 24.371094 -10.203125 23.925781 -10.652344 23.425781 -10.652344 C 23.269531 -10.652344 23.109375 -10.597656 22.925781 -10.519531 C 16.65625 -6.558594 4.566406 -0.945312 0.996094 -0.945312 C -0.183594 -0.945312 -0.628906 -1.363281 -0.628906 -2.386719 C -0.628906 -3.988281 2.125 -7.894531 6.136719 -12.015625 L 6.164062 -12.039062 C 6.320312 -12.222656 6.402344 -12.433594 6.402344 -12.671875 C 6.402344 -13.167969 5.953125 -13.613281 5.457031 -13.613281 C 5.195312 -13.613281 4.957031 -13.511719 4.773438 -13.324219 C 0.15625 -8.550781 -2.519531 -4.566406 -2.519531 -2.386719 C -2.519531 -0.289062 -1.207031 0.945312 0.996094 0.945312 Z M 0.996094 0.945312" transform="translate(195.627 167.41)"/></g></g></g><g><g><g><path d="M 15.738281 -19.753906 C 16 -19.753906 16.238281 -19.859375 16.421875 -20.042969 C 17.289062 -20.90625 18.125 -21.902344 18.964844 -22.925781 C 19.78125 -23.925781 20.515625 -24.972656 21.167969 -26.074219 C 21.273438 -26.207031 21.328125 -26.390625 21.328125 -26.574219 C 21.328125 -27.097656 20.882812 -27.519531 20.382812 -27.519531 C 20.042969 -27.519531 19.726562 -27.335938 19.570312 -27.046875 C 18.964844 -26.050781 18.285156 -25.078125 17.496094 -24.109375 C 16.683594 -23.085938 15.84375 -22.167969 15.058594 -21.351562 C 14.898438 -21.167969 14.796875 -20.933594 14.796875 -20.699219 C 14.796875 -20.171875 15.214844 -19.753906 15.738281 -19.753906 Z M 15.738281 -19.753906" transform="translate(216.376 167.41)"/></g></g></g><g><g><g><path d="M 33.917969 -10.652344 C 33.789062 -10.652344 33.683594 -10.625 33.605469 -10.597656 C 30.035156 -9.390625 25.839844 -8.183594 21.71875 -6.976562 C 18.441406 -6.058594 15.214844 -5.089844 12.460938 -4.222656 C 12.511719 -4.40625 12.539062 -4.617188 12.566406 -4.773438 C 12.671875 -5.953125 11.753906 -6.636719 10.152344 -6.636719 C 9.179688 -6.636719 7.871094 -6.425781 6.609375 -6.21875 C 5.246094 -5.980469 3.933594 -5.769531 2.886719 -5.769531 C 1.96875 -5.769531 1.652344 -5.902344 1.652344 -6.296875 C 1.652344 -8.605469 7.792969 -13.246094 11.121094 -13.246094 C 11.410156 -13.246094 11.648438 -13.167969 11.648438 -12.957031 C 11.648438 -12.277344 10.730469 -11.019531 9.835938 -10.492188 C 9.546875 -10.335938 9.363281 -10.019531 9.363281 -9.679688 C 9.363281 -9.15625 9.785156 -8.734375 10.308594 -8.734375 C 10.46875 -8.734375 10.652344 -8.789062 10.808594 -8.867188 C 11.988281 -9.574219 13.117188 -11.097656 13.484375 -12.511719 C 13.511719 -12.644531 13.535156 -12.878906 13.535156 -13.0625 C 13.535156 -14.324219 12.589844 -15.136719 11.121094 -15.136719 C 6.664062 -15.136719 -0.234375 -9.679688 -0.234375 -6.113281 C -0.234375 -4.667969 0.890625 -3.882812 2.886719 -3.882812 C 4.066406 -3.882812 5.5625 -4.117188 6.925781 -4.355469 C 8.65625 -4.644531 10.519531 -5.089844 10.730469 -4.722656 C 10.835938 -4.539062 10.492188 -3.988281 10.152344 -3.488281 L 9.996094 -3.382812 C 2.335938 -0.707031 -2.808594 2.203125 -2.808594 4.171875 C -2.808594 5.273438 -1.941406 5.953125 -0.5 5.953125 C 3.515625 5.953125 8.734375 1.707031 11.175781 -1.730469 C 11.203125 -1.785156 11.253906 -1.808594 11.332031 -1.863281 C 14.429688 -2.886719 18.257812 -3.988281 22.246094 -5.167969 C 26.363281 -6.375 30.613281 -7.609375 34.207031 -8.8125 C 34.601562 -8.917969 34.863281 -9.285156 34.863281 -9.707031 C 34.863281 -10.230469 34.445312 -10.652344 33.917969 -10.652344 Z M -0.132812 4.066406 C -0.394531 4.066406 -0.523438 3.988281 -0.523438 3.882812 C -0.523438 3.75 -0.394531 3.59375 -0.183594 3.460938 C 1.234375 2.464844 4.511719 0.785156 7.871094 -0.601562 C 5.089844 2.203125 1.808594 4.066406 -0.132812 4.066406 Z M -0.132812 4.066406" transform="translate(225.556 167.41)"/></g></g></g><g><g><g><path d="M 52.519531 -38.40625 C 49.476562 -38.40625 45.539062 -38.222656 41.027344 -37.855469 C 40.792969 -37.828125 40.792969 -37.855469 40.921875 -38.0625 L 40.976562 -38.167969 C 41.054688 -38.324219 41.105469 -38.507812 41.105469 -38.667969 C 41.105469 -39.191406 40.6875 -39.609375 40.164062 -39.609375 C 39.847656 -39.609375 39.507812 -39.425781 39.347656 -39.164062 C 39.113281 -38.746094 38.824219 -38.300781 38.507812 -37.855469 C 38.378906 -37.671875 38.273438 -37.617188 38.0625 -37.589844 C 28.566406 -36.75 16.632812 -35.179688 4.300781 -32.972656 C 3.855469 -32.894531 3.515625 -32.503906 3.515625 -32.03125 C 3.515625 -31.503906 3.933594 -31.085938 4.460938 -31.085938 L 4.617188 -31.113281 C 16.238281 -33.183594 27.414062 -34.679688 36.566406 -35.570312 C 36.804688 -35.597656 36.832031 -35.546875 36.699219 -35.363281 C 33.578125 -31.269531 28.910156 -25.890625 24.027344 -20.199219 C 14.453125 -9.078125 3.933594 3.121094 2.78125 8.183594 C 2.675781 8.65625 2.648438 9.15625 2.675781 9.46875 C 2.753906 10.230469 3.621094 10.625 4.277344 10.203125 C 4.75 9.863281 5.117188 9.050781 5.378906 7.738281 C 5.457031 7.34375 5.429688 7.03125 5.273438 6.847656 C 7.894531 1.417969 16.921875 -9.078125 25.445312 -18.964844 C 30.902344 -25.261719 36.097656 -31.320312 39.21875 -35.597656 C 39.347656 -35.78125 39.425781 -35.832031 39.636719 -35.832031 C 44.859375 -36.28125 49.265625 -36.515625 52.519531 -36.515625 C 61.28125 -36.515625 63.5625 -35.886719 63.5625 -33.628906 C 63.5625 -33.105469 63.980469 -32.6875 64.507812 -32.6875 C 65.03125 -32.6875 65.449219 -33.105469 65.449219 -33.628906 C 65.449219 -37.355469 62.511719 -38.40625 52.519531 -38.40625 Z M 52.519531 -38.40625" transform="translate(80.13 244.66)"/></g></g></g><g><g><g><path d="M 1.523438 13.0625 C 8.789062 13.0625 29.484375 -0.339844 41.34375 -8.945312 C 41.578125 -9.101562 41.734375 -9.390625 41.734375 -9.707031 C 41.734375 -10.230469 41.316406 -10.652344 40.792969 -10.652344 C 40.582031 -10.652344 40.398438 -10.597656 40.242188 -10.46875 C 28.410156 -1.914062 8.210938 11.175781 1.523438 11.175781 C 0.339844 11.175781 -0.0507812 10.808594 -0.0507812 9.707031 C -0.0507812 6.347656 5.875 0.523438 11.699219 -5.21875 C 16.839844 -10.28125 21.957031 -15.320312 21.957031 -18.308594 C 21.957031 -19.4375 20.933594 -20.332031 19.621094 -21.511719 C 19.226562 -21.824219 18.808594 -22.191406 18.414062 -22.585938 C 23.292969 -27.804688 26.179688 -31.820312 26.179688 -33.445312 C 26.179688 -34.496094 25.578125 -35.125 24.554688 -35.125 C 20.722656 -35.125 12.355469 -28.699219 12.355469 -25.707031 C 12.355469 -24.683594 13.140625 -23.84375 15.554688 -22.246094 C 11.621094 -18.152344 6.820312 -13.773438 2.125 -10.46875 C 1.863281 -10.28125 1.707031 -9.996094 1.707031 -9.679688 C 1.707031 -9.15625 2.125 -8.734375 2.648438 -8.734375 C 2.859375 -8.734375 3.042969 -8.789062 3.199219 -8.917969 C 7.503906 -11.960938 12.722656 -16.710938 17.105469 -21.222656 C 19.253906 -19.78125 20.066406 -18.992188 20.066406 -18.308594 C 20.066406 -16.132812 15.503906 -11.621094 10.363281 -6.558594 C 4.539062 -0.8125 -1.941406 5.5625 -1.941406 9.707031 C -1.941406 11.855469 -0.707031 13.0625 1.523438 13.0625 Z M 16.839844 -23.636719 C 15.164062 -24.761719 14.246094 -25.523438 14.246094 -25.707031 C 14.246094 -27.414062 20.90625 -32.527344 23.636719 -33.105469 C 23.976562 -33.15625 24.1875 -33.027344 24.082031 -32.710938 C 23.375 -31.007812 19.332031 -26.285156 16.839844 -23.636719 Z M 16.839844 -23.636719" transform="translate(111.79 244.66)"/></g></g></g><g><g><g><path d="M 37.355469 -10.652344 C 37.144531 -10.652344 36.960938 -10.597656 36.804688 -10.46875 C 30.140625 -5.484375 19.675781 -1.546875 16 -1.546875 C 14.113281 -1.546875 13.351562 -2.097656 13.351562 -3.4375 C 13.351562 -5.640625 15.214844 -8.367188 16.605469 -10.363281 C 17.445312 -11.570312 17.96875 -12.355469 17.96875 -12.957031 C 17.96875 -13.589844 17.472656 -14.0625 16.839844 -14.0625 C 16.265625 -14.0625 15.371094 -13.511719 12.40625 -11.359375 C 11.699219 -12.511719 10.753906 -12.984375 9.078125 -12.984375 C 4.933594 -12.984375 -5.980469 -6.164062 -5.980469 -1.992188 C -5.980469 -0.707031 -5.035156 0.132812 -3.59375 0.132812 C -0.183594 0.132812 7.320312 -5.351562 12.328125 -8.972656 C 12.695312 -9.234375 13.0625 -9.496094 13.40625 -9.757812 C 13.824219 -10.074219 14.007812 -9.890625 13.746094 -9.445312 C 12.566406 -7.554688 11.464844 -5.429688 11.464844 -3.4375 C 11.464844 -0.996094 13.0625 0.339844 16 0.339844 C 20.25 0.339844 31.242188 -4.171875 37.878906 -8.917969 C 38.140625 -9.101562 38.300781 -9.390625 38.300781 -9.707031 C 38.300781 -10.203125 37.855469 -10.652344 37.355469 -10.652344 Z M 10.859375 -10.257812 C 4.277344 -5.484375 -1.074219 -1.757812 -3.59375 -1.757812 C -3.910156 -1.757812 -4.09375 -1.890625 -4.09375 -2.203125 C -4.09375 -4.644531 5.167969 -11.097656 9.078125 -11.097656 C 10.152344 -11.097656 10.46875 -10.9375 10.859375 -10.257812 Z M 10.859375 -10.257812" transform="translate(149.877 244.66)"/></g></g></g><g><g><g><path d="M 31.503906 -10.652344 C 31.320312 -10.652344 31.136719 -10.597656 30.980469 -10.492188 C 26.835938 -7.816406 19.882812 -4.355469 14.085938 -4.355469 C 12.800781 -4.355469 11.804688 -4.644531 11.121094 -5.195312 C 13.851562 -8.839844 15.320312 -11.59375 15.320312 -13.0625 C 15.320312 -14.035156 14.585938 -14.742188 13.5625 -14.742188 C 11.070312 -14.742188 8.261719 -10.859375 8.261719 -7.476562 C 8.261719 -6.636719 8.421875 -5.902344 8.734375 -5.21875 C 2.859375 2.28125 -4.667969 9.445312 -6.953125 9.445312 C -7.136719 9.445312 -7.371094 9.339844 -7.371094 8.996094 C -7.371094 5.140625 1.390625 -6.871094 4.066406 -9.835938 C 4.222656 -10.019531 4.300781 -10.230469 4.300781 -10.46875 C 4.300781 -10.992188 3.882812 -11.410156 3.359375 -11.410156 C 3.09375 -11.410156 2.832031 -11.304688 2.648438 -11.097656 C -0.078125 -8.078125 -9.261719 4.566406 -9.261719 9.050781 C -9.261719 10.519531 -8.316406 11.332031 -6.664062 11.332031 C -3.75 11.332031 4.484375 3.277344 9.96875 -3.699219 C 10.992188 -2.886719 12.40625 -2.464844 14.085938 -2.464844 C 20.332031 -2.464844 27.753906 -6.164062 32.003906 -8.894531 C 32.265625 -9.078125 32.449219 -9.390625 32.449219 -9.707031 C 32.449219 -10.230469 32.03125 -10.652344 31.503906 -10.652344 Z M 13.273438 -12.171875 C 12.855469 -11.070312 11.777344 -9.285156 10.179688 -7.082031 C 10.152344 -7.214844 10.152344 -7.34375 10.152344 -7.476562 C 10.152344 -9.339844 11.542969 -11.832031 12.773438 -12.617188 C 13.484375 -13.0625 13.484375 -12.75 13.273438 -12.171875 Z M 13.273438 -12.171875" transform="translate(184.553 244.66)"/></g></g></g><g><g><g><path d="M 27.070312 -10.652344 C 26.863281 -10.652344 26.679688 -10.597656 26.519531 -10.46875 C 18.363281 -4.511719 7.371094 -1.285156 3.960938 -1.285156 C 1.3125 -1.285156 0 -1.992188 0 -3.304688 C 0 -4.589844 0.945312 -6.402344 2.519531 -8.132812 C 3.304688 -7.792969 4.171875 -7.660156 5.429688 -7.660156 C 7.84375 -7.660156 10.625 -9.601562 10.625 -11.332031 C 10.625 -12.589844 9.652344 -13.429688 8.183594 -13.429688 C 4.09375 -13.429688 -1.890625 -7.421875 -1.890625 -3.304688 C -1.890625 -0.8125 0.234375 0.601562 3.960938 0.601562 C 7.632812 0.601562 19.203125 -2.78125 27.621094 -8.945312 C 27.859375 -9.101562 28.015625 -9.417969 28.015625 -9.707031 C 28.015625 -10.230469 27.597656 -10.652344 27.070312 -10.652344 Z M 8.734375 -11.332031 C 8.734375 -10.753906 7.398438 -9.546875 5.429688 -9.546875 C 4.878906 -9.546875 4.460938 -9.574219 4.09375 -9.628906 C 5.585938 -10.835938 7.082031 -11.542969 8.183594 -11.542969 C 8.65625 -11.542969 8.734375 -11.464844 8.734375 -11.332031 Z M 8.734375 -11.332031" transform="translate(213.355 244.66)"/></g></g></g><g><g><g><path d="M 58.132812 -58.523438 C 58.132812 -60.203125 57.003906 -61.199219 55.167969 -61.199219 C 45.171875 -61.199219 -3.515625 -12.328125 -3.515625 1.808594 C -3.515625 4.355469 -2.152344 5.535156 0.734375 5.535156 C 5.429688 5.535156 18.886719 -1.890625 28.988281 -8.867188 C 29.25 -9.050781 29.40625 -9.339844 29.40625 -9.652344 C 29.40625 -10.179688 28.988281 -10.597656 28.460938 -10.597656 C 28.253906 -10.597656 28.070312 -10.546875 27.910156 -10.414062 C 16.632812 -2.625 4.484375 3.644531 0.734375 3.644531 C -1.128906 3.644531 -1.625 3.253906 -1.625 1.808594 C -1.625 -0.417969 -0.234375 -3.828125 2.519531 -8.289062 C 22.742188 -20.539062 58.132812 -51.519531 58.132812 -58.523438 Z M 55.167969 -59.3125 C 56.007812 -59.3125 56.242188 -59.101562 56.242188 -58.523438 C 56.242188 -53.148438 26.152344 -25.890625 5.117188 -12.171875 C 18.625 -31.402344 48.214844 -59.3125 55.167969 -59.3125 Z M 55.167969 -59.3125" transform="translate(237.749 244.66)"/></g></g></g><g><g><g><path d="M 33.917969 -10.652344 C 33.789062 -10.652344 33.683594 -10.625 33.605469 -10.597656 C 30.035156 -9.390625 25.839844 -8.183594 21.71875 -6.976562 C 18.441406 -6.058594 15.214844 -5.089844 12.460938 -4.222656 C 12.511719 -4.40625 12.539062 -4.617188 12.566406 -4.773438 C 12.671875 -5.953125 11.753906 -6.636719 10.152344 -6.636719 C 9.179688 -6.636719 7.871094 -6.425781 6.609375 -6.21875 C 5.246094 -5.980469 3.933594 -5.769531 2.886719 -5.769531 C 1.96875 -5.769531 1.652344 -5.902344 1.652344 -6.296875 C 1.652344 -8.605469 7.792969 -13.246094 11.121094 -13.246094 C 11.410156 -13.246094 11.648438 -13.167969 11.648438 -12.957031 C 11.648438 -12.277344 10.730469 -11.019531 9.835938 -10.492188 C 9.546875 -10.335938 9.363281 -10.019531 9.363281 -9.679688 C 9.363281 -9.15625 9.785156 -8.734375 10.308594 -8.734375 C 10.46875 -8.734375 10.652344 -8.789062 10.808594 -8.867188 C 11.988281 -9.574219 13.117188 -11.097656 13.484375 -12.511719 C 13.511719 -12.644531 13.535156 -12.878906 13.535156 -13.0625 C 13.535156 -14.324219 12.589844 -15.136719 11.121094 -15.136719 C 6.664062 -15.136719 -0.234375 -9.679688 -0.234375 -6.113281 C -0.234375 -4.667969 0.890625 -3.882812 2.886719 -3.882812 C 4.066406 -3.882812 5.5625 -4.117188 6.925781 -4.355469 C 8.65625 -4.644531 10.519531 -5.089844 10.730469 -4.722656 C 10.835938 -4.539062 10.492188 -3.988281 10.152344 -3.488281 L 9.996094 -3.382812 C 2.335938 -0.707031 -2.808594 2.203125 -2.808594 4.171875 C -2.808594 5.273438 -1.941406 5.953125 -0.5 5.953125 C 3.515625 5.953125 8.734375 1.707031 11.175781 -1.730469 C 11.203125 -1.785156 11.253906 -1.808594 11.332031 -1.863281 C 14.429688 -2.886719 18.257812 -3.988281 22.246094 -5.167969 C 26.363281 -6.375 30.613281 -7.609375 34.207031 -8.8125 C 34.601562 -8.917969 34.863281 -9.285156 34.863281 -9.707031 C 34.863281 -10.230469 34.445312 -10.652344 33.917969 -10.652344 Z M -0.132812 4.066406 C -0.394531 4.066406 -0.523438 3.988281 -0.523438 3.882812 C -0.523438 3.75 -0.394531 3.59375 -0.183594 3.460938 C 1.234375 2.464844 4.511719 0.785156 7.871094 -0.601562 C 5.089844 2.203125 1.808594 4.066406 -0.132812 4.066406 Z M -0.132812 4.066406" transform="translate(263.586 244.66)"/></g></g></g></svg>