<svg xmlns="http://www.w3.org/2000/svg" width="375" viewBox="0 0 375 375" height="375" version="1.0"><path fill="#FFF" d="M-37.5 -37.5H412.5V412.5H-37.5z"/><path fill="#FFF" d="M-37.5 -37.5H412.5V412.5H-37.5z"/><path fill="#FFF" d="M-37.5 -37.5H412.5V412.5H-37.5z"/><g fill="#545454"><g><g><path d="M 12.859375 -25.859375 C 14.691406 -25.859375 16.066406 -25.984375 16.984375 -26.234375 C 17.390625 -24.804688 17.59375 -23.40625 17.59375 -22.03125 C 17.59375 -21.21875 17.238281 -20.8125 16.53125 -20.8125 L 12.015625 -20.8125 C 10.941406 -20.8125 10.082031 -20.53125 9.4375 -19.96875 C 8.800781 -19.40625 8.484375 -18.664062 8.484375 -17.75 L 8.484375 -7.34375 C 8.484375 -6.375 8.800781 -5.617188 9.4375 -5.078125 C 10.082031 -4.546875 10.9375 -4.28125 12 -4.28125 C 13.070312 -4.28125 13.941406 -4.546875 14.609375 -5.078125 C 15.273438 -5.617188 15.609375 -6.375 15.609375 -7.34375 L 15.609375 -9.25 L 15.375 -13.15625 C 16.09375 -13.3125 16.804688 -13.390625 17.515625 -13.390625 C 18.234375 -13.390625 18.945312 -13.285156 19.65625 -13.078125 C 20.988281 -12.722656 21.65625 -12.085938 21.65625 -11.171875 L 21.65625 -6.265625 C 21.65625 -4.179688 20.785156 -2.488281 19.046875 -1.1875 C 17.316406 0.113281 14.984375 0.765625 12.046875 0.765625 C 9.117188 0.765625 6.785156 0.0507812 5.046875 -1.375 C 3.316406 -2.800781 2.453125 -4.789062 2.453125 -7.34375 L 2.453125 -18.046875 C 2.453125 -20.347656 3.191406 -22.109375 4.671875 -23.328125 C 3.191406 -24.554688 2.453125 -26.316406 2.453125 -28.609375 L 2.453125 -42.375 C 2.453125 -44.925781 3.316406 -46.914062 5.046875 -48.34375 C 6.785156 -49.769531 9.09375 -50.484375 11.96875 -50.484375 C 14.851562 -50.484375 17.132812 -49.832031 18.8125 -48.53125 C 20.5 -47.238281 21.34375 -45.546875 21.34375 -43.453125 L 21.34375 -37.03125 C 21.34375 -36.113281 20.679688 -35.472656 19.359375 -35.109375 C 18.640625 -34.910156 17.921875 -34.8125 17.203125 -34.8125 C 16.492188 -34.8125 15.785156 -34.882812 15.078125 -35.03125 C 15.222656 -36.257812 15.296875 -37.5625 15.296875 -38.9375 L 15.296875 -42.375 C 15.296875 -44.414062 14.175781 -45.4375 11.9375 -45.4375 C 10.863281 -45.4375 10.019531 -45.164062 9.40625 -44.625 C 8.789062 -44.09375 8.484375 -43.34375 8.484375 -42.375 L 8.484375 -28.921875 C 8.484375 -28.003906 8.773438 -27.265625 9.359375 -26.703125 C 9.953125 -26.140625 10.734375 -25.859375 11.703125 -25.859375 Z M 12.859375 -25.859375" transform="translate(47.262 202.835)"/></g></g></g><g fill="#545454"><g><g><path d="M 13.390625 -44.671875 C 12.015625 -44.671875 10.632812 -43.984375 9.25 -42.609375 L 9.25 -7.1875 L 9.5625 0 C 7.832031 0.25 6.125 0.375 4.4375 0.375 C 3.625 0.375 3.21875 -0.0546875 3.21875 -0.921875 L 3.21875 -42.296875 C 3.21875 -43.421875 3.007812 -44.222656 2.59375 -44.703125 C 2.1875 -45.191406 1.445312 -45.4375 0.375 -45.4375 C 0.332031 -46.769531 0.691406 -47.816406 1.453125 -48.578125 C 2.210938 -49.335938 3.4375 -49.71875 5.125 -49.71875 C 6.8125 -49.71875 8.007812 -48.878906 8.71875 -47.203125 C 10.707031 -48.878906 12.75 -49.71875 14.84375 -49.71875 C 17.945312 -49.71875 20.085938 -48.75 21.265625 -46.8125 C 23.359375 -48.75 25.550781 -49.71875 27.84375 -49.71875 C 32.894531 -49.71875 35.421875 -47.222656 35.421875 -42.234375 L 35.421875 -6.5 C 35.421875 -5.425781 35.632812 -4.671875 36.0625 -4.234375 C 36.5 -3.804688 37.253906 -3.59375 38.328125 -3.59375 C 38.328125 -0.6875 36.695312 0.765625 33.4375 0.765625 C 30.726562 0.765625 29.375 -0.992188 29.375 -4.515625 L 29.375 -41.765625 C 29.375 -43.703125 28.378906 -44.671875 26.390625 -44.671875 C 24.804688 -44.671875 23.484375 -44.035156 22.421875 -42.765625 L 22.421875 -7.1875 L 22.71875 0 C 20.988281 0.25 19.28125 0.375 17.59375 0.375 C 16.78125 0.375 16.375 -0.0546875 16.375 -0.921875 L 16.375 -41.765625 C 16.375 -43.703125 15.378906 -44.671875 13.390625 -44.671875 Z M 13.390625 -44.671875" transform="translate(70.667 202.835)"/></g></g></g><g fill="#545454"><g><g><path d="M 2.828125 -0.921875 L 2.828125 -42.53125 L 2.53125 -49.71875 C 4.257812 -49.976562 5.96875 -50.109375 7.65625 -50.109375 C 8.46875 -50.109375 8.875 -49.675781 8.875 -48.8125 L 8.875 -7.1875 L 9.1875 0 C 7.445312 0.25 5.734375 0.375 4.046875 0.375 C 3.234375 0.375 2.828125 -0.0546875 2.828125 -0.921875 Z M 2.828125 -0.921875" transform="translate(109.217 202.835)"/></g></g></g><g fill="#545454"><g><g><path d="M 9.109375 -49.109375 C 9.109375 -47.171875 8.53125 -45.191406 7.375 -43.171875 C 6.226562 -41.160156 4.992188 -40.15625 3.671875 -40.15625 C 2.859375 -40.15625 2.144531 -40.257812 1.53125 -40.46875 C 2.195312 -42.195312 2.53125 -45.15625 2.53125 -49.34375 C 2.53125 -52 3.625 -53.328125 5.8125 -53.328125 C 8.007812 -53.328125 9.109375 -51.921875 9.109375 -49.109375 Z M 9.109375 -49.109375" transform="translate(120.92 202.835)"/></g></g></g><g fill="#545454"><g><g><path d="M 2.375 -32.046875 L 2.375 -42.375 C 2.375 -44.925781 3.238281 -46.914062 4.96875 -48.34375 C 6.707031 -49.769531 9.039062 -50.484375 11.96875 -50.484375 C 14.90625 -50.484375 17.238281 -49.832031 18.96875 -48.53125 C 20.707031 -47.238281 21.578125 -45.546875 21.578125 -43.453125 L 21.578125 -33.96875 C 21.578125 -33.050781 20.910156 -32.410156 19.578125 -32.046875 C 18.867188 -31.847656 18.15625 -31.75 17.4375 -31.75 C 16.726562 -31.75 16.015625 -31.828125 15.296875 -31.984375 C 15.453125 -33.203125 15.53125 -34.5 15.53125 -35.875 L 15.53125 -42.375 C 15.53125 -43.34375 15.195312 -44.09375 14.53125 -44.625 C 13.875 -45.164062 13.007812 -45.4375 11.9375 -45.4375 C 10.863281 -45.4375 10.007812 -45.164062 9.375 -44.625 C 8.738281 -44.09375 8.421875 -43.34375 8.421875 -42.375 L 8.421875 -33.4375 C 8.421875 -31.644531 9.003906 -30.394531 10.171875 -29.6875 L 18.28125 -24.484375 C 20.570312 -23.054688 21.71875 -20.863281 21.71875 -17.90625 L 21.71875 -7.34375 C 21.71875 -4.789062 20.828125 -2.800781 19.046875 -1.375 C 17.265625 0.0507812 14.90625 0.765625 11.96875 0.765625 C 9.039062 0.765625 6.679688 0.113281 4.890625 -1.1875 C 3.109375 -2.488281 2.21875 -4.179688 2.21875 -6.265625 L 2.21875 -15.765625 C 2.21875 -16.679688 2.878906 -17.316406 4.203125 -17.671875 C 4.921875 -17.878906 5.632812 -17.984375 6.34375 -17.984375 C 7.0625 -17.984375 7.773438 -17.90625 8.484375 -17.75 C 8.335938 -16.519531 8.265625 -15.21875 8.265625 -13.84375 L 8.265625 -7.34375 C 8.265625 -6.425781 8.617188 -5.6875 9.328125 -5.125 C 10.046875 -4.5625 10.9375 -4.28125 12 -4.28125 C 13.070312 -4.28125 13.953125 -4.5625 14.640625 -5.125 C 15.335938 -5.6875 15.6875 -6.425781 15.6875 -7.34375 L 15.6875 -15.984375 C 15.6875 -17.972656 14.992188 -19.398438 13.609375 -20.265625 L 5.515625 -25.546875 C 3.421875 -26.878906 2.375 -29.046875 2.375 -32.046875 Z M 2.375 -32.046875" transform="translate(131.246 202.835)"/></g></g></g><g fill="#545454"><g><g><path d="M 15.984375 -49.71875 C 17.828125 -49.71875 19.207031 -49.847656 20.125 -50.109375 C 20.53125 -48.679688 20.734375 -47.28125 20.734375 -45.90625 C 20.734375 -45.082031 20.375 -44.671875 19.65625 -44.671875 L 13.6875 -44.671875 L 13.6875 -7.1875 L 14 0 C 12.269531 0.25 10.5625 0.375 8.875 0.375 C 8.0625 0.375 7.65625 -0.0546875 7.65625 -0.921875 L 7.65625 -44.671875 L 5.359375 -44.671875 C 3.515625 -44.671875 2.132812 -44.546875 1.21875 -44.296875 C 0.8125 -45.722656 0.609375 -47.125 0.609375 -48.5 C 0.609375 -49.3125 0.96875 -49.71875 1.6875 -49.71875 Z M 15.984375 -49.71875" transform="translate(164.442 202.835)"/></g></g></g><g fill="#545454"><g><g><path d="M 3.21875 -0.921875 L 3.21875 -42.296875 C 3.21875 -43.421875 3.007812 -44.222656 2.59375 -44.703125 C 2.1875 -45.191406 1.445312 -45.4375 0.375 -45.4375 C 0.332031 -46.769531 0.691406 -47.816406 1.453125 -48.578125 C 2.210938 -49.335938 3.4375 -49.71875 5.125 -49.71875 C 6.8125 -49.71875 8.007812 -48.878906 8.71875 -47.203125 C 10.707031 -48.878906 12.75 -49.71875 14.84375 -49.71875 C 19.894531 -49.71875 22.421875 -47.222656 22.421875 -42.234375 L 22.421875 -24.484375 C 22.421875 -21.265625 21.066406 -18.96875 18.359375 -17.59375 L 19.96875 -7.34375 C 20.21875 -5.707031 21.007812 -4.890625 22.34375 -4.890625 C 22.75 -4.890625 23.234375 -4.992188 23.796875 -5.203125 C 23.992188 -4.585938 24.09375 -3.859375 24.09375 -3.015625 C 24.09375 -2.179688 23.671875 -1.34375 22.828125 -0.5 C 21.992188 0.34375 20.910156 0.765625 19.578125 0.765625 C 16.578125 0.765625 14.867188 -0.535156 14.453125 -3.140625 L 12.234375 -16.375 L 9.25 -16.375 L 9.25 -7.1875 L 9.5625 0 C 7.832031 0.25 6.125 0.375 4.4375 0.375 C 3.625 0.375 3.21875 -0.0546875 3.21875 -0.921875 Z M 13.390625 -44.671875 C 12.015625 -44.671875 10.632812 -43.984375 9.25 -42.609375 L 9.25 -21.421875 L 12.78125 -21.421875 C 13.84375 -21.421875 14.707031 -21.6875 15.375 -22.21875 C 16.039062 -22.757812 16.375 -23.515625 16.375 -24.484375 L 16.375 -41.765625 C 16.375 -43.703125 15.378906 -44.671875 13.390625 -44.671875 Z M 13.390625 -44.671875" transform="translate(185.782 202.835)"/></g></g></g><g fill="#545454"><g><g><path d="M 2.75 -0.921875 L 2.75 -42.375 C 2.75 -44.925781 3.613281 -46.914062 5.34375 -48.34375 C 7.082031 -49.769531 9.457031 -50.484375 12.46875 -50.484375 C 15.476562 -50.484375 17.8125 -49.820312 19.46875 -48.5 C 21.125 -47.175781 21.953125 -45.238281 21.953125 -42.6875 L 21.953125 -6.5 C 21.953125 -5.425781 22.164062 -4.671875 22.59375 -4.234375 C 23.03125 -3.804688 23.785156 -3.59375 24.859375 -3.59375 C 24.859375 -0.6875 23.226562 0.765625 19.96875 0.765625 C 17.257812 0.765625 15.90625 -0.992188 15.90625 -4.515625 L 15.90625 -19.125 L 8.796875 -19.125 L 8.796875 -7.1875 L 9.109375 0 C 7.367188 0.25 5.660156 0.375 3.984375 0.375 C 3.160156 0.375 2.75 -0.0546875 2.75 -0.921875 Z M 8.796875 -42.375 L 8.796875 -24.171875 L 15.90625 -24.171875 L 15.90625 -42.375 C 15.90625 -43.34375 15.570312 -44.09375 14.90625 -44.625 C 14.25 -45.164062 13.382812 -45.4375 12.3125 -45.4375 C 11.238281 -45.4375 10.382812 -45.164062 9.75 -44.625 C 9.113281 -44.09375 8.796875 -43.34375 8.796875 -42.375 Z M 8.796875 -42.375" transform="translate(211.1 202.835)"/></g></g></g><g fill="#545454"><g><g><path d="M 12.546875 -4.59375 C 13.671875 -9.632812 14.675781 -16.109375 15.5625 -24.015625 C 16.457031 -31.921875 16.90625 -37.757812 16.90625 -41.53125 C 16.90625 -45.3125 16.726562 -48.039062 16.375 -49.71875 C 18.257812 -49.925781 20.039062 -50.03125 21.71875 -50.03125 C 22.6875 -50.03125 23.171875 -49.519531 23.171875 -48.5 C 23.171875 -42.019531 22.632812 -34.203125 21.5625 -25.046875 C 20.5 -15.898438 19.253906 -8.773438 17.828125 -3.671875 C 17.109375 -1.222656 16.035156 0 14.609375 0 L 10.09375 0 C 8.507812 0 7.441406 -1.222656 6.890625 -3.671875 C 4.128906 -15.503906 2.75 -28.6875 2.75 -43.21875 C 2.75 -44.289062 2.53125 -45.039062 2.09375 -45.46875 C 1.664062 -45.90625 0.914062 -46.125 -0.15625 -46.125 C -0.15625 -49.03125 1.523438 -50.484375 4.890625 -50.484375 C 7.597656 -50.484375 8.953125 -48.726562 8.953125 -45.21875 C 8.953125 -38.425781 9.269531 -31.101562 9.90625 -23.25 C 10.539062 -15.394531 11.421875 -9.175781 12.546875 -4.59375 Z M 12.546875 -4.59375" transform="translate(236.111 202.835)"/></g></g></g><g fill="#545454"><g><g><path d="M 12.859375 -25.859375 C 14.691406 -25.859375 16.066406 -25.984375 16.984375 -26.234375 C 17.390625 -24.804688 17.59375 -23.40625 17.59375 -22.03125 C 17.59375 -21.21875 17.238281 -20.8125 16.53125 -20.8125 L 12.015625 -20.8125 C 10.941406 -20.8125 10.082031 -20.53125 9.4375 -19.96875 C 8.800781 -19.40625 8.484375 -18.664062 8.484375 -17.75 L 8.484375 -7.34375 C 8.484375 -6.375 8.800781 -5.617188 9.4375 -5.078125 C 10.082031 -4.546875 10.9375 -4.28125 12 -4.28125 C 13.070312 -4.28125 13.941406 -4.546875 14.609375 -5.078125 C 15.273438 -5.617188 15.609375 -6.375 15.609375 -7.34375 L 15.609375 -9.25 L 15.375 -13.15625 C 16.09375 -13.3125 16.804688 -13.390625 17.515625 -13.390625 C 18.234375 -13.390625 18.945312 -13.285156 19.65625 -13.078125 C 20.988281 -12.722656 21.65625 -12.085938 21.65625 -11.171875 L 21.65625 -6.265625 C 21.65625 -4.179688 20.785156 -2.488281 19.046875 -1.1875 C 17.316406 0.113281 14.984375 0.765625 12.046875 0.765625 C 9.117188 0.765625 6.785156 0.0507812 5.046875 -1.375 C 3.316406 -2.800781 2.453125 -4.789062 2.453125 -7.34375 L 2.453125 -18.046875 C 2.453125 -20.347656 3.191406 -22.109375 4.671875 -23.328125 C 3.191406 -24.554688 2.453125 -26.316406 2.453125 -28.609375 L 2.453125 -42.375 C 2.453125 -44.925781 3.316406 -46.914062 5.046875 -48.34375 C 6.785156 -49.769531 9.09375 -50.484375 11.96875 -50.484375 C 14.851562 -50.484375 17.132812 -49.832031 18.8125 -48.53125 C 20.5 -47.238281 21.34375 -45.546875 21.34375 -43.453125 L 21.34375 -37.03125 C 21.34375 -36.113281 20.679688 -35.472656 19.359375 -35.109375 C 18.640625 -34.910156 17.921875 -34.8125 17.203125 -34.8125 C 16.492188 -34.8125 15.785156 -34.882812 15.078125 -35.03125 C 15.222656 -36.257812 15.296875 -37.5625 15.296875 -38.9375 L 15.296875 -42.375 C 15.296875 -44.414062 14.175781 -45.4375 11.9375 -45.4375 C 10.863281 -45.4375 10.019531 -45.164062 9.40625 -44.625 C 8.789062 -44.09375 8.484375 -43.34375 8.484375 -42.375 L 8.484375 -28.921875 C 8.484375 -28.003906 8.773438 -27.265625 9.359375 -26.703125 C 9.953125 -26.140625 10.734375 -25.859375 11.703125 -25.859375 Z M 12.859375 -25.859375" transform="translate(261.046 202.835)"/></g></g></g><g fill="#545454"><g><g><path d="M 14.234375 -5.046875 C 16.066406 -5.046875 17.441406 -5.175781 18.359375 -5.4375 C 18.765625 -4.007812 18.96875 -2.601562 18.96875 -1.21875 C 18.96875 -0.40625 18.613281 0 17.90625 0 L 2.828125 0 L 2.828125 -42.53125 L 2.53125 -49.71875 C 4.257812 -49.976562 5.96875 -50.109375 7.65625 -50.109375 C 8.46875 -50.109375 8.875 -49.675781 8.875 -48.8125 L 8.875 -5.046875 Z M 14.234375 -5.046875" transform="translate(284.452 202.835)"/></g></g></g><g fill="#545454"><g><g><path d="M 2.375 -32.046875 L 2.375 -42.375 C 2.375 -44.925781 3.238281 -46.914062 4.96875 -48.34375 C 6.707031 -49.769531 9.039062 -50.484375 11.96875 -50.484375 C 14.90625 -50.484375 17.238281 -49.832031 18.96875 -48.53125 C 20.707031 -47.238281 21.578125 -45.546875 21.578125 -43.453125 L 21.578125 -33.96875 C 21.578125 -33.050781 20.910156 -32.410156 19.578125 -32.046875 C 18.867188 -31.847656 18.15625 -31.75 17.4375 -31.75 C 16.726562 -31.75 16.015625 -31.828125 15.296875 -31.984375 C 15.453125 -33.203125 15.53125 -34.5 15.53125 -35.875 L 15.53125 -42.375 C 15.53125 -43.34375 15.195312 -44.09375 14.53125 -44.625 C 13.875 -45.164062 13.007812 -45.4375 11.9375 -45.4375 C 10.863281 -45.4375 10.007812 -45.164062 9.375 -44.625 C 8.738281 -44.09375 8.421875 -43.34375 8.421875 -42.375 L 8.421875 -33.4375 C 8.421875 -31.644531 9.003906 -30.394531 10.171875 -29.6875 L 18.28125 -24.484375 C 20.570312 -23.054688 21.71875 -20.863281 21.71875 -17.90625 L 21.71875 -7.34375 C 21.71875 -4.789062 20.828125 -2.800781 19.046875 -1.375 C 17.265625 0.0507812 14.90625 0.765625 11.96875 0.765625 C 9.039062 0.765625 6.679688 0.113281 4.890625 -1.1875 C 3.109375 -2.488281 2.21875 -4.179688 2.21875 -6.265625 L 2.21875 -15.765625 C 2.21875 -16.679688 2.878906 -17.316406 4.203125 -17.671875 C 4.921875 -17.878906 5.632812 -17.984375 6.34375 -17.984375 C 7.0625 -17.984375 7.773438 -17.90625 8.484375 -17.75 C 8.335938 -16.519531 8.265625 -15.21875 8.265625 -13.84375 L 8.265625 -7.34375 C 8.265625 -6.425781 8.617188 -5.6875 9.328125 -5.125 C 10.046875 -4.5625 10.9375 -4.28125 12 -4.28125 C 13.070312 -4.28125 13.953125 -4.5625 14.640625 -5.125 C 15.335938 -5.6875 15.6875 -6.425781 15.6875 -7.34375 L 15.6875 -15.984375 C 15.6875 -17.972656 14.992188 -19.398438 13.609375 -20.265625 L 5.515625 -25.546875 C 3.421875 -26.878906 2.375 -29.046875 2.375 -32.046875 Z M 2.375 -32.046875" transform="translate(303.727 202.835)"/></g></g></g></svg>