<svg xmlns="http://www.w3.org/2000/svg" width="375" viewBox="0 0 375 375" height="375" version="1.0"><path fill="#FFF" d="M-37.5 -37.5H412.5V412.5H-37.5z"/><path fill="#FFF" d="M-37.5 -37.5H412.5V412.5H-37.5z"/><path fill="#FFF" d="M-37.5 -37.5H412.5V412.5H-37.5z"/><g fill="#545454"><g><g><path d="M 16.28125 -18.859375 C 13.425781 -18.859375 9.957031 -16.394531 9.957031 -14.351562 C 9.957031 -13.257812 10.832031 -12.445312 12.242188 -12.167969 C 5.996094 -9.640625 0.332031 -4.597656 0.332031 -0.875 C 0.332031 1.472656 1.765625 2.679688 4.535156 2.679688 C 8.507812 2.679688 14.238281 -1.015625 17.792969 -4.292969 C 17.882812 -4.382812 17.933594 -4.496094 17.933594 -4.621094 C 17.933594 -4.863281 17.71875 -5.082031 17.476562 -5.082031 C 17.363281 -5.082031 17.261719 -5.042969 17.160156 -4.964844 C 13.679688 -1.753906 8.230469 1.765625 4.535156 1.765625 C 2.261719 1.765625 1.246094 0.953125 1.246094 -0.875 C 1.246094 -4.609375 8.304688 -10.339844 15.304688 -12.257812 L 15.292969 -12.257812 C 15.761719 -12.332031 16.21875 -12.433594 16.664062 -12.546875 C 16.929688 -12.636719 17.058594 -12.851562 16.992188 -13.105469 C 16.917969 -13.398438 16.726562 -13.527344 16.445312 -13.476562 C 15.988281 -13.386719 15.519531 -13.273438 15.0625 -13.144531 L 15.074219 -13.144531 C 14.441406 -13.042969 13.882812 -12.992188 13.324219 -12.992188 C 11.863281 -12.992188 10.871094 -13.550781 10.871094 -14.351562 C 10.871094 -15.863281 13.996094 -17.945312 16.28125 -17.945312 C 17.070312 -17.945312 17.539062 -17.296875 17.550781 -16.21875 C 17.550781 -15.964844 17.753906 -15.761719 18.007812 -15.761719 C 18.25 -15.761719 18.464844 -15.976562 18.464844 -16.21875 C 18.441406 -17.820312 17.578125 -18.859375 16.28125 -18.859375 Z M 16.28125 -18.859375" transform="translate(62.402 187.273)"/></g></g></g><g fill="#545454"><g><g><path d="M 35.699219 -16.816406 C 35.699219 -17.601562 35.191406 -18.085938 34.355469 -18.085938 C 32.15625 -18.085938 26.570312 -13.042969 21.386719 -7.53125 C 23.128906 -10.109375 24.320312 -12.242188 24.320312 -13.5625 C 24.320312 -14.554688 23.6875 -15.125 22.570312 -15.125 C 21.347656 -15.125 19.722656 -14.425781 17.730469 -13.019531 C 18.351562 -14.414062 18.683594 -15.597656 18.683594 -16.496094 C 18.683594 -17.820312 17.90625 -18.695312 16.738281 -18.695312 C 14.324219 -18.695312 11.558594 -16.96875 8.585938 -13.601562 C 8.507812 -13.539062 8.472656 -13.410156 8.472656 -13.296875 C 8.472656 -13.054688 8.6875 -12.839844 8.929688 -12.839844 C 9.066406 -12.839844 9.195312 -12.890625 9.285156 -12.992188 C 12.039062 -16.140625 14.605469 -17.78125 16.738281 -17.78125 C 17.398438 -17.78125 17.769531 -17.324219 17.769531 -16.496094 C 17.769531 -15.417969 17.234375 -13.867188 16.179688 -11.914062 L 16.179688 -11.898438 C 16.167969 -11.863281 16.15625 -11.863281 16.117188 -11.824219 C 11.1875 -7.914062 5.996094 -1.703125 5.996094 -0.355469 C 5.996094 0.0390625 6.273438 0.316406 6.65625 0.316406 C 8.332031 0.316406 13.957031 -6.109375 16.828125 -11.253906 L 16.828125 -11.265625 C 16.839844 -11.304688 16.851562 -11.304688 16.890625 -11.339844 C 19.316406 -13.234375 21.273438 -14.210938 22.570312 -14.210938 C 23.179688 -14.210938 23.40625 -14.019531 23.40625 -13.5625 C 23.40625 -11.773438 20.5625 -7.8125 18.300781 -4.660156 C 17.617188 -3.707031 16.992188 -2.84375 16.535156 -2.132812 C 16.382812 -1.90625 16.421875 -1.675781 16.636719 -1.511719 L 16.648438 -1.511719 L 16.664062 -1.5 C 16.890625 -1.332031 17.132812 -1.371094 17.296875 -1.585938 C 22.074219 -7.480469 31.648438 -17.171875 34.355469 -17.171875 C 34.699219 -17.171875 34.785156 -17.082031 34.785156 -16.816406 C 34.785156 -14.9375 30.429688 -8.851562 23.113281 -0.558594 C 22.808594 -0.191406 22.683594 0.0273438 22.683594 0.242188 C 22.683594 0.546875 22.886719 0.761719 23.191406 0.761719 C 23.433594 0.761719 23.773438 0.496094 24.246094 -0.0507812 C 24.386719 -0.230469 24.410156 -0.394531 24.335938 -0.535156 C 31.75 -9.042969 35.699219 -14.695312 35.699219 -16.816406 Z M 7.085938 -0.761719 C 6.933594 -0.6875 6.945312 -0.597656 7.0625 -0.839844 C 7.785156 -2.296875 10.78125 -5.855469 14.121094 -8.953125 C 14.199219 -9.015625 14.949219 -9.804688 14.949219 -9.804688 C 12.34375 -5.753906 8.6875 -1.625 7.085938 -0.761719 Z M 7.085938 -0.761719" transform="translate(78.709 187.273)"/></g></g></g><g fill="#545454"><g><g><path d="M 0.140625 3.570312 C 0.332031 3.570312 0.496094 3.453125 0.558594 3.289062 C 0.660156 3.074219 0.800781 2.808594 0.992188 2.464844 C 1.042969 2.375 1.09375 2.347656 1.195312 2.335938 C 1.6875 2.296875 2.132812 2.285156 2.503906 2.285156 C 3.910156 2.285156 4.878906 2.398438 5.308594 2.605469 C 5.371094 2.640625 5.449219 2.65625 5.511719 2.65625 C 5.765625 2.65625 5.96875 2.453125 5.96875 2.195312 C 5.96875 2.019531 5.867188 1.855469 5.703125 1.777344 C 5.132812 1.511719 4.050781 1.371094 2.503906 1.371094 C 2.285156 1.371094 2.042969 1.371094 1.765625 1.382812 C 1.652344 1.398438 1.652344 1.371094 1.703125 1.28125 C 4.394531 -2.933594 10.832031 -11.542969 15.976562 -17.222656 C 16.054688 -17.3125 16.089844 -17.324219 16.207031 -17.3125 C 17.132812 -17.183594 18.160156 -16.957031 19.175781 -16.675781 C 19.226562 -16.664062 19.265625 -16.648438 19.316406 -16.648438 C 19.570312 -16.648438 19.773438 -16.851562 19.773438 -17.109375 C 19.773438 -17.3125 19.636719 -17.5 19.433594 -17.550781 C 18.644531 -17.769531 17.804688 -17.957031 16.957031 -18.125 C 16.851562 -18.136719 16.839844 -18.148438 16.90625 -18.226562 L 17.386719 -18.734375 C 17.464844 -18.820312 17.515625 -18.9375 17.515625 -19.050781 C 17.515625 -19.304688 17.3125 -19.507812 17.058594 -19.507812 C 16.929688 -19.507812 16.816406 -19.457031 16.726562 -19.367188 C 16.613281 -19.242188 16.496094 -19.125 16.382812 -19.011719 C 16.191406 -18.808594 16.003906 -18.605469 15.8125 -18.390625 C 15.75 -18.3125 15.683594 -18.289062 15.582031 -18.300781 C 14.960938 -18.363281 14.402344 -18.402344 13.90625 -18.402344 C 12.140625 -18.402344 10.605469 -18.238281 10.085938 -17.996094 C 9.933594 -17.921875 9.816406 -17.753906 9.816406 -17.578125 C 9.816406 -17.324219 10.019531 -17.121094 10.273438 -17.121094 C 10.339844 -17.121094 10.414062 -17.132812 10.476562 -17.171875 C 10.859375 -17.347656 12.332031 -17.488281 13.90625 -17.488281 C 14.1875 -17.488281 14.492188 -17.476562 14.808594 -17.449219 C 14.9375 -17.4375 14.9375 -17.425781 14.859375 -17.347656 C 9.523438 -11.378906 3.023438 -2.605469 0.570312 1.371094 C 0.535156 1.460938 0.484375 1.484375 0.382812 1.5 C -0.902344 1.625 -2.386719 1.855469 -3.644531 2.222656 C -3.847656 2.273438 -3.988281 2.464844 -3.988281 2.667969 C -3.988281 2.921875 -3.785156 3.125 -3.53125 3.125 C -3.480469 3.125 -3.441406 3.113281 -3.390625 3.097656 C -2.515625 2.859375 -1.421875 2.640625 -0.179688 2.476562 C -0.078125 2.464844 -0.0625 2.476562 -0.113281 2.578125 L -0.28125 2.921875 C -0.304688 2.984375 -0.316406 3.046875 -0.316406 3.113281 C -0.316406 3.367188 -0.113281 3.570312 0.140625 3.570312 Z M 0.140625 3.570312" transform="translate(111.957 187.273)"/></g></g></g><g fill="#545454"><g><g><path d="M 7.621094 -9.5625 C 7.746094 -9.5625 7.863281 -9.613281 7.949219 -9.703125 C 8.371094 -10.121094 8.777344 -10.605469 9.183594 -11.101562 C 9.574219 -11.582031 9.933594 -12.089844 10.25 -12.625 C 10.300781 -12.6875 10.324219 -12.777344 10.324219 -12.867188 C 10.324219 -13.121094 10.109375 -13.324219 9.867188 -13.324219 C 9.703125 -13.324219 9.550781 -13.234375 9.472656 -13.09375 C 9.183594 -12.613281 8.851562 -12.140625 8.472656 -11.671875 C 8.078125 -11.175781 7.671875 -10.730469 7.289062 -10.339844 C 7.214844 -10.25 7.164062 -10.136719 7.164062 -10.019531 C 7.164062 -9.765625 7.367188 -9.5625 7.621094 -9.5625 Z M 7.621094 -9.5625" transform="translate(124.568 187.273)"/></g></g></g><g fill="#545454"><g><g><path d="M 22.453125 -5.601562 C 22.390625 -5.601562 22.339844 -5.589844 22.300781 -5.574219 C 18.464844 -4.253906 15.214844 -3.175781 12.511719 -2.273438 L 11.238281 -1.839844 C 11.238281 -1.839844 11.226562 -1.839844 11.226562 -1.839844 L 11.226562 -1.855469 C 10.644531 -2.996094 9.359375 -4.113281 7.328125 -5.257812 C 4.828125 -6.65625 3.351562 -7.734375 3.722656 -9.84375 C 4.46875 -14.085938 12.980469 -18.210938 18.25 -18.210938 C 20.601562 -18.210938 21.71875 -17.3125 21.4375 -15.660156 C 21.132812 -13.984375 19.863281 -12.308594 17.753906 -10.871094 C 17.628906 -10.78125 17.550781 -10.644531 17.550781 -10.492188 C 17.550781 -10.238281 17.753906 -10.035156 18.007812 -10.035156 C 18.109375 -10.035156 18.199219 -10.058594 18.277344 -10.121094 C 20.574219 -11.683594 21.996094 -13.578125 22.328125 -15.507812 C 22.722656 -17.753906 21.171875 -19.125 18.25 -19.125 C 12.777344 -19.125 3.65625 -14.695312 2.832031 -9.996094 C 2.363281 -7.328125 4.34375 -5.894531 6.871094 -4.46875 C 8.675781 -3.46875 9.816406 -2.488281 10.351562 -1.5625 C 3.046875 0.902344 1.613281 1.585938 1.613281 2.730469 C 1.613281 3.554688 2.65625 4.039062 4.367188 4.039062 C 7.863281 4.039062 11.582031 1.726562 11.582031 -0.445312 C 11.582031 -0.648438 11.570312 -0.8125 11.53125 -0.976562 C 11.53125 -0.976562 11.53125 -0.992188 11.53125 -0.992188 L 12.800781 -1.398438 C 15.507812 -2.296875 18.757812 -3.378906 22.59375 -4.710938 C 22.785156 -4.761719 22.910156 -4.941406 22.910156 -5.144531 C 22.910156 -5.398438 22.707031 -5.601562 22.453125 -5.601562 Z M 4.367188 3.125 C 3.480469 3.125 2.527344 2.882812 2.527344 2.730469 C 2.527344 2.234375 4.484375 1.398438 10.65625 -0.6875 C 10.667969 -0.597656 10.667969 -0.535156 10.667969 -0.445312 C 10.667969 1.179688 7.265625 3.125 4.367188 3.125 Z M 4.367188 3.125" transform="translate(129.013 187.273)"/></g></g></g><g fill="#545454"><g><g><path d="M 25.425781 -18.59375 C 23.953125 -18.59375 22.046875 -18.503906 19.863281 -18.328125 C 19.75 -18.3125 19.75 -18.328125 19.8125 -18.429688 L 19.839844 -18.480469 C 19.875 -18.554688 19.902344 -18.644531 19.902344 -18.71875 C 19.902344 -18.972656 19.699219 -19.175781 19.445312 -19.175781 C 19.292969 -19.175781 19.125 -19.089844 19.050781 -18.960938 C 18.9375 -18.757812 18.796875 -18.542969 18.644531 -18.328125 C 18.582031 -18.238281 18.53125 -18.210938 18.429688 -18.199219 C 13.832031 -17.792969 8.050781 -17.03125 2.082031 -15.964844 C 1.867188 -15.925781 1.703125 -15.734375 1.703125 -15.507812 C 1.703125 -15.253906 1.90625 -15.050781 2.160156 -15.050781 L 2.234375 -15.0625 C 7.863281 -16.066406 13.273438 -16.789062 17.703125 -17.222656 C 17.820312 -17.234375 17.832031 -17.210938 17.769531 -17.121094 C 16.257812 -15.140625 13.996094 -12.535156 11.632812 -9.78125 C 6.996094 -4.394531 1.90625 1.511719 1.347656 3.960938 C 1.296875 4.191406 1.28125 4.433594 1.296875 4.585938 C 1.332031 4.953125 1.753906 5.144531 2.070312 4.941406 C 2.296875 4.773438 2.476562 4.382812 2.605469 3.746094 C 2.640625 3.554688 2.628906 3.402344 2.554688 3.316406 C 3.824219 0.6875 8.191406 -4.394531 12.320312 -9.183594 C 14.960938 -12.230469 17.476562 -15.164062 18.988281 -17.234375 C 19.050781 -17.324219 19.089844 -17.347656 19.191406 -17.347656 C 21.71875 -17.566406 23.851562 -17.679688 25.425781 -17.679688 C 29.667969 -17.679688 30.773438 -17.375 30.773438 -16.28125 C 30.773438 -16.027344 30.976562 -15.824219 31.230469 -15.824219 C 31.484375 -15.824219 31.6875 -16.027344 31.6875 -16.28125 C 31.6875 -18.085938 30.265625 -18.59375 25.425781 -18.59375 Z M 25.425781 -18.59375" transform="translate(162.49 187.273)"/></g></g></g><g fill="#545454"><g><g><path d="M 26.300781 -5.15625 C 26.1875 -5.15625 26.085938 -5.117188 25.996094 -5.042969 C 23.976562 -3.265625 17.871094 1.027344 14.160156 1.027344 C 12.371094 1.027344 11.175781 -1.078125 9.945312 -3.25 C 9.894531 -3.339844 9.855469 -3.417969 9.804688 -3.492188 C 9.652344 -3.796875 9.472656 -4.089844 9.308594 -4.367188 C 17.84375 -4.597656 25.273438 -10.695312 25.273438 -15.824219 C 25.273438 -18.300781 23.382812 -19.761719 20.195312 -19.761719 C 14.085938 -19.761719 6.082031 -15.671875 2.640625 -10.78125 C 2.578125 -10.707031 2.554688 -10.617188 2.554688 -10.515625 C 2.554688 -10.261719 2.757812 -10.058594 3.011719 -10.058594 C 3.164062 -10.058594 3.300781 -10.136719 3.390625 -10.261719 C 6.667969 -14.910156 14.375 -18.847656 20.195312 -18.847656 C 22.976562 -18.847656 24.359375 -17.832031 24.359375 -15.824219 C 24.359375 -11.023438 17.246094 -5.285156 8.839844 -5.285156 L 8.75 -5.285156 C 8.726562 -5.285156 8.726562 -5.285156 8.699219 -5.308594 C 8.523438 -5.574219 8.320312 -5.828125 8.117188 -6.058594 C 8.101562 -6.082031 8.089844 -6.070312 8.101562 -6.082031 C 10.390625 -8.890625 13.09375 -11.773438 15.546875 -13.84375 C 15.648438 -13.933594 15.710938 -14.058594 15.710938 -14.199219 C 15.710938 -14.453125 15.507812 -14.65625 15.253906 -14.65625 C 15.140625 -14.65625 15.039062 -14.617188 14.960938 -14.542969 C 12.460938 -12.421875 9.714844 -9.523438 7.417969 -6.691406 C 7.011719 -6.996094 6.578125 -7.148438 6.121094 -7.148438 C 5.5625 -7.148438 5.144531 -6.78125 5.144531 -6.285156 C 5.144531 -5.84375 5.5 -5.386719 6.109375 -5.03125 C 2.882812 -0.789062 1.257812 1.867188 0.992188 3.339844 C 0.941406 3.644531 0.914062 3.796875 0.914062 3.925781 L 0.925781 4.011719 C 0.964844 4.382812 1.28125 4.597656 1.613281 4.46875 C 1.890625 4.382812 2.082031 3.976562 2.222656 3.214844 C 2.261719 2.996094 2.222656 2.832031 2.09375 2.757812 C 2.679688 1.269531 4.191406 -1.027344 6.972656 -4.648438 L 6.984375 -4.660156 L 6.996094 -4.660156 C 7.328125 -4.546875 7.722656 -4.46875 8.167969 -4.40625 C 8.203125 -4.40625 8.230469 -4.394531 8.242188 -4.367188 C 8.523438 -3.898438 8.828125 -3.367188 9.144531 -2.808594 C 10.375 -0.636719 11.835938 1.941406 14.160156 1.941406 C 18.148438 1.941406 24.539062 -2.554688 26.609375 -4.355469 C 26.695312 -4.445312 26.761719 -4.570312 26.761719 -4.699219 C 26.761719 -4.953125 26.558594 -5.15625 26.300781 -5.15625 Z M 6.691406 -5.777344 C 6.679688 -5.765625 6.691406 -5.765625 6.667969 -5.777344 C 6.335938 -5.945312 6.121094 -6.109375 6.070312 -6.234375 L 6.121094 -6.234375 C 6.363281 -6.234375 6.617188 -6.160156 6.859375 -5.996094 Z M 7.53125 -5.386719 C 7.542969 -5.410156 7.570312 -5.449219 7.582031 -5.449219 C 7.582031 -5.4375 7.570312 -5.410156 7.558594 -5.398438 C 7.542969 -5.386719 7.542969 -5.386719 7.53125 -5.386719 Z M 7.53125 -5.386719" transform="translate(177.819 187.273)"/></g></g></g><g fill="#545454"><g><g><path d="M 29.515625 -6.261719 C 26.402344 -6.464844 23.546875 -6.617188 20.941406 -6.71875 C 20.828125 -6.71875 20.828125 -6.742188 20.890625 -6.820312 C 22.136719 -8.445312 23.597656 -10.3125 25.300781 -12.433594 C 27.636719 -15.355469 29.554688 -17.769531 29.796875 -18.429688 C 30.050781 -19.140625 29.746094 -19.636719 29.035156 -19.636719 C 26.265625 -19.636719 16.078125 -12.929688 7.925781 -6.757812 C 7.847656 -6.707031 7.796875 -6.679688 7.671875 -6.667969 C 4.519531 -6.488281 1.828125 -6.160156 -0.445312 -5.675781 C -0.648438 -5.640625 -0.8125 -5.449219 -0.8125 -5.234375 C -0.8125 -4.980469 -0.609375 -4.773438 -0.34375 -4.773438 L -0.265625 -4.789062 C 1.5625 -5.167969 3.722656 -5.472656 6.375 -5.664062 C 6.488281 -5.675781 6.503906 -5.664062 6.402344 -5.589844 C 3.925781 -3.671875 1.6875 -1.855469 0.0273438 -0.34375 C -0.078125 -0.253906 -0.128906 -0.128906 -0.128906 0 C -0.128906 0.253906 0.078125 0.457031 0.332031 0.457031 C 0.445312 0.457031 0.546875 0.417969 0.636719 0.34375 C 2.515625 -1.347656 5.117188 -3.480469 8.039062 -5.703125 C 8.101562 -5.753906 8.152344 -5.777344 8.28125 -5.792969 C 11.390625 -5.957031 14.898438 -5.980469 18.859375 -5.867188 C 18.960938 -5.867188 18.972656 -5.84375 18.910156 -5.742188 C 15.277344 -0.902344 14.035156 1.371094 14.554688 2.347656 C 14.632812 2.488281 14.796875 2.589844 14.960938 2.589844 C 15.214844 2.589844 15.417969 2.386719 15.417969 2.132812 C 15.417969 2.058594 15.40625 1.980469 15.355469 1.90625 C 15.089844 1.382812 16.597656 -1.117188 20.054688 -5.714844 C 20.117188 -5.804688 20.167969 -5.828125 20.257812 -5.816406 C 23.039062 -5.726562 26.074219 -5.574219 29.464844 -5.347656 L 29.492188 -5.347656 C 29.746094 -5.347656 29.949219 -5.550781 29.949219 -5.804688 C 29.949219 -6.046875 29.757812 -6.25 29.515625 -6.261719 Z M 19.75 -6.859375 C 19.699219 -6.78125 19.648438 -6.757812 19.546875 -6.757812 C 15.710938 -6.871094 12.410156 -6.871094 9.574219 -6.757812 C 9.460938 -6.757812 9.4375 -6.757812 9.550781 -6.84375 C 17.285156 -12.625 26.339844 -18.554688 28.933594 -18.71875 C 28.703125 -18.160156 26.886719 -15.902344 24.589844 -13.003906 C 22.695312 -10.644531 21.082031 -8.597656 19.75 -6.859375 Z M 19.75 -6.859375" transform="translate(202.812 187.273)"/></g></g></g><g fill="#545454"><g><g><path d="M 22.503906 -14.515625 C 22.289062 -14.960938 21.742188 -14.847656 20.714844 -14.199219 C 17.449219 -12.167969 14.351562 -9.03125 10.148438 -4.789062 C 8.902344 -3.53125 7.542969 -2.160156 6.058594 -0.699219 C 5.996094 -0.636719 5.996094 -0.636719 6.03125 -0.710938 L 7.046875 -2.539062 C 10.617188 -8.878906 13.296875 -14.035156 13.296875 -17.3125 C 13.296875 -19.125 12.28125 -20.117188 10.441406 -20.117188 C 4.710938 -20.117188 -7.226562 -10.832031 -7.226562 -6.351562 C -7.226562 -5.234375 -6.3125 -4.484375 -4.941406 -4.484375 C -2.984375 -4.484375 0.28125 -6.132812 2.082031 -8.027344 C 2.160156 -8.117188 2.210938 -8.230469 2.210938 -8.34375 C 2.210938 -8.597656 2.007812 -8.800781 1.753906 -8.800781 C 1.625 -8.800781 1.511719 -8.75 1.421875 -8.660156 C -0.203125 -6.945312 -3.238281 -5.398438 -4.941406 -5.398438 C -5.804688 -5.398438 -6.3125 -5.753906 -6.3125 -6.351562 C -6.3125 -10.300781 5.257812 -19.203125 10.441406 -19.203125 C 11.785156 -19.203125 12.382812 -18.617188 12.382812 -17.3125 C 12.382812 -14.261719 9.816406 -9.320312 6.261719 -2.984375 C 5.488281 -1.601562 4.660156 -0.140625 3.808594 1.398438 C 3.683594 1.636719 3.734375 1.855469 3.9375 2.019531 L 3.976562 2.042969 C 4.191406 2.210938 4.40625 2.195312 4.609375 2.007812 C 6.945312 -0.265625 8.980469 -2.3125 10.796875 -4.152344 C 14.820312 -8.203125 17.78125 -11.1875 20.789062 -13.183594 C 20.878906 -13.105469 20.980469 -13.054688 21.09375 -13.054688 C 21.171875 -13.054688 21.246094 -13.070312 21.324219 -13.121094 C 22.277344 -13.640625 22.707031 -14.109375 22.503906 -14.515625 Z M 22.503906 -14.515625" transform="translate(229.825 187.273)"/></g></g></g><g fill="#545454"><g><g><path d="M 16.28125 -18.859375 C 13.425781 -18.859375 9.957031 -16.394531 9.957031 -14.351562 C 9.957031 -13.257812 10.832031 -12.445312 12.242188 -12.167969 C 5.996094 -9.640625 0.332031 -4.597656 0.332031 -0.875 C 0.332031 1.472656 1.765625 2.679688 4.535156 2.679688 C 8.507812 2.679688 14.238281 -1.015625 17.792969 -4.292969 C 17.882812 -4.382812 17.933594 -4.496094 17.933594 -4.621094 C 17.933594 -4.863281 17.71875 -5.082031 17.476562 -5.082031 C 17.363281 -5.082031 17.261719 -5.042969 17.160156 -4.964844 C 13.679688 -1.753906 8.230469 1.765625 4.535156 1.765625 C 2.261719 1.765625 1.246094 0.953125 1.246094 -0.875 C 1.246094 -4.609375 8.304688 -10.339844 15.304688 -12.257812 L 15.292969 -12.257812 C 15.761719 -12.332031 16.21875 -12.433594 16.664062 -12.546875 C 16.929688 -12.636719 17.058594 -12.851562 16.992188 -13.105469 C 16.917969 -13.398438 16.726562 -13.527344 16.445312 -13.476562 C 15.988281 -13.386719 15.519531 -13.273438 15.0625 -13.144531 L 15.074219 -13.144531 C 14.441406 -13.042969 13.882812 -12.992188 13.324219 -12.992188 C 11.863281 -12.992188 10.871094 -13.550781 10.871094 -14.351562 C 10.871094 -15.863281 13.996094 -17.945312 16.28125 -17.945312 C 17.070312 -17.945312 17.539062 -17.296875 17.550781 -16.21875 C 17.550781 -15.964844 17.753906 -15.761719 18.007812 -15.761719 C 18.25 -15.761719 18.464844 -15.976562 18.464844 -16.21875 C 18.441406 -17.820312 17.578125 -18.859375 16.28125 -18.859375 Z M 16.28125 -18.859375" transform="translate(248.126 187.273)"/></g></g></g><g fill="#545454"><g><g><path d="M 19.992188 -9.015625 C 20.027344 -9.042969 20.042969 -9.054688 20.078125 -9.054688 C 26.746094 -11.339844 31.253906 -15.8125 31.253906 -17.945312 C 31.253906 -18.695312 30.785156 -19.152344 30.023438 -19.152344 C 28.195312 -19.152344 25.539062 -16.292969 22.441406 -12.941406 C 21.515625 -11.9375 20.523438 -10.871094 19.496094 -9.804688 C 19.457031 -9.78125 19.445312 -9.765625 19.417969 -9.765625 C 15.597656 -8.546875 11.644531 -8.242188 7.796875 -8.878906 L 7.722656 -8.878906 C 7.46875 -8.878906 7.265625 -8.675781 7.265625 -8.421875 C 7.265625 -8.191406 7.429688 -8 7.660156 -7.964844 C 11.441406 -7.355469 15.023438 -7.671875 18.1875 -8.484375 C 15.632812 -5.96875 12.867188 -3.59375 9.984375 -2.121094 C 9.96875 -2.109375 9.957031 -2.109375 9.933594 -2.121094 L 9.054688 -2.527344 C 6.515625 -3.695312 4.152344 -4.773438 2.375 -4.773438 C 0.6875 -4.773438 -0.445312 -3.925781 -0.445312 -2.640625 C -0.445312 -0.851562 1.460938 0.292969 4.382812 0.292969 C 6.171875 0.292969 8.027344 -0.179688 9.933594 -1.09375 C 9.957031 -1.105469 9.984375 -1.105469 10.007812 -1.09375 C 12.878906 0.203125 16.066406 1.484375 19.089844 1.484375 C 21.859375 1.484375 24.957031 -0.304688 28.742188 -4.089844 C 28.816406 -4.152344 28.855469 -4.28125 28.855469 -4.394531 C 28.855469 -4.648438 28.652344 -4.851562 28.398438 -4.851562 C 28.285156 -4.851562 28.15625 -4.800781 28.066406 -4.699219 C 24.488281 -1.117188 21.601562 0.570312 19.089844 0.570312 C 16.460938 0.570312 13.679688 -0.46875 11.023438 -1.636719 C 14.238281 -3.441406 17.285156 -6.222656 19.992188 -9.015625 Z M 22.757812 -11.9375 C 22.875 -12.066406 22.988281 -12.191406 23.113281 -12.320312 C 26.214844 -15.671875 28.601562 -18.238281 30.023438 -18.238281 C 30.277344 -18.238281 30.339844 -18.175781 30.339844 -17.945312 C 30.339844 -16.269531 26.835938 -12.699219 21.363281 -10.453125 Z M 0.46875 -2.640625 C 0.46875 -3.390625 1.195312 -3.859375 2.375 -3.859375 C 3.960938 -3.859375 6.132812 -2.859375 8.675781 -1.6875 L 8.878906 -1.601562 C 7.316406 -0.953125 5.816406 -0.621094 4.382812 -0.621094 C 2.007812 -0.621094 0.46875 -1.421875 0.46875 -2.640625 Z M 0.46875 -2.640625" transform="translate(264.432 187.273)"/></g></g></g><g fill="#545454"><g><g><path d="M 22.453125 -5.601562 C 22.390625 -5.601562 22.339844 -5.589844 22.300781 -5.574219 C 18.464844 -4.253906 15.214844 -3.175781 12.511719 -2.273438 L 11.238281 -1.839844 C 11.238281 -1.839844 11.226562 -1.839844 11.226562 -1.839844 L 11.226562 -1.855469 C 10.644531 -2.996094 9.359375 -4.113281 7.328125 -5.257812 C 4.828125 -6.65625 3.351562 -7.734375 3.722656 -9.84375 C 4.46875 -14.085938 12.980469 -18.210938 18.25 -18.210938 C 20.601562 -18.210938 21.71875 -17.3125 21.4375 -15.660156 C 21.132812 -13.984375 19.863281 -12.308594 17.753906 -10.871094 C 17.628906 -10.78125 17.550781 -10.644531 17.550781 -10.492188 C 17.550781 -10.238281 17.753906 -10.035156 18.007812 -10.035156 C 18.109375 -10.035156 18.199219 -10.058594 18.277344 -10.121094 C 20.574219 -11.683594 21.996094 -13.578125 22.328125 -15.507812 C 22.722656 -17.753906 21.171875 -19.125 18.25 -19.125 C 12.777344 -19.125 3.65625 -14.695312 2.832031 -9.996094 C 2.363281 -7.328125 4.34375 -5.894531 6.871094 -4.46875 C 8.675781 -3.46875 9.816406 -2.488281 10.351562 -1.5625 C 3.046875 0.902344 1.613281 1.585938 1.613281 2.730469 C 1.613281 3.554688 2.65625 4.039062 4.367188 4.039062 C 7.863281 4.039062 11.582031 1.726562 11.582031 -0.445312 C 11.582031 -0.648438 11.570312 -0.8125 11.53125 -0.976562 C 11.53125 -0.976562 11.53125 -0.992188 11.53125 -0.992188 L 12.800781 -1.398438 C 15.507812 -2.296875 18.757812 -3.378906 22.59375 -4.710938 C 22.785156 -4.761719 22.910156 -4.941406 22.910156 -5.144531 C 22.910156 -5.398438 22.707031 -5.601562 22.453125 -5.601562 Z M 4.367188 3.125 C 3.480469 3.125 2.527344 2.882812 2.527344 2.730469 C 2.527344 2.234375 4.484375 1.398438 10.65625 -0.6875 C 10.667969 -0.597656 10.667969 -0.535156 10.667969 -0.445312 C 10.667969 1.179688 7.265625 3.125 4.367188 3.125 Z M 4.367188 3.125" transform="translate(291.826 187.273)"/></g></g></g></svg>