<svg xmlns="http://www.w3.org/2000/svg" xmlns:xlink="http://www.w3.org/1999/xlink" width="500" zoomAndPan="magnify" viewBox="0 0 375 374.999991" height="500" preserveAspectRatio="xMidYMid meet" version="1.0"><defs><g/></defs><g fill="#222222" fill-opacity="1"><g transform="translate(114.867507, 207.368965)"><g><path d="M 12.046875 -40.765625 L 12.046875 -24.75 L 30.875 -24.75 L 30.875 -19.6875 L 12.046875 -19.6875 L 12.046875 0 L 5.84375 0 L 5.84375 -45.8125 L 34.078125 -45.8125 L 34.078125 -40.765625 Z M 12.046875 -40.765625 "/></g></g></g><g fill="#222222" fill-opacity="1"><g transform="translate(151.024117, 207.368965)"><g><path d="M 34.109375 -5.046875 L 34.078125 0 L 5.84375 0 L 5.84375 -45.8125 L 34.078125 -45.8125 L 34.078125 -40.765625 L 12.046875 -40.765625 L 12.046875 -25.546875 L 29.890625 -25.546875 L 29.890625 -20.6875 L 12.046875 -20.6875 L 12.046875 -5.046875 Z M 34.109375 -5.046875 "/></g></g></g><g fill="#222222" fill-opacity="1"><g transform="translate(187.947974, 207.368965)"><g><path d="M 29.28125 -38.65625 C 29.09375 -38.332031 28.882812 -38.085938 28.65625 -37.921875 C 28.4375 -37.765625 28.164062 -37.6875 27.84375 -37.6875 C 27.476562 -37.6875 27.050781 -37.867188 26.5625 -38.234375 C 26.070312 -38.597656 25.457031 -39 24.71875 -39.4375 C 23.988281 -39.875 23.109375 -40.269531 22.078125 -40.625 C 21.046875 -40.988281 19.789062 -41.171875 18.3125 -41.171875 C 16.925781 -41.171875 15.707031 -40.984375 14.65625 -40.609375 C 13.601562 -40.242188 12.71875 -39.738281 12 -39.09375 C 11.289062 -38.457031 10.753906 -37.707031 10.390625 -36.84375 C 10.023438 -35.976562 9.84375 -35.046875 9.84375 -34.046875 C 9.84375 -32.765625 10.15625 -31.703125 10.78125 -30.859375 C 11.414062 -30.023438 12.25 -29.304688 13.28125 -28.703125 C 14.3125 -28.109375 15.484375 -27.59375 16.796875 -27.15625 C 18.109375 -26.71875 19.453125 -26.265625 20.828125 -25.796875 C 22.203125 -25.328125 23.546875 -24.800781 24.859375 -24.21875 C 26.171875 -23.632812 27.34375 -22.894531 28.375 -22 C 29.40625 -21.101562 30.234375 -20.003906 30.859375 -18.703125 C 31.492188 -17.398438 31.8125 -15.800781 31.8125 -13.90625 C 31.8125 -11.90625 31.46875 -10.023438 30.78125 -8.265625 C 30.101562 -6.503906 29.109375 -4.972656 27.796875 -3.671875 C 26.484375 -2.367188 24.875 -1.34375 22.96875 -0.59375 C 21.0625 0.144531 18.894531 0.515625 16.46875 0.515625 C 13.476562 0.515625 10.769531 -0.0195312 8.34375 -1.09375 C 5.914062 -2.175781 3.835938 -3.632812 2.109375 -5.46875 L 3.90625 -8.40625 C 4.070312 -8.644531 4.273438 -8.84375 4.515625 -9 C 4.765625 -9.15625 5.039062 -9.234375 5.34375 -9.234375 C 5.613281 -9.234375 5.925781 -9.117188 6.28125 -8.890625 C 6.632812 -8.671875 7.035156 -8.390625 7.484375 -8.046875 C 7.929688 -7.710938 8.441406 -7.34375 9.015625 -6.9375 C 9.585938 -6.53125 10.238281 -6.15625 10.96875 -5.8125 C 11.707031 -5.476562 12.546875 -5.195312 13.484375 -4.96875 C 14.421875 -4.75 15.476562 -4.640625 16.65625 -4.640625 C 18.125 -4.640625 19.429688 -4.835938 20.578125 -5.234375 C 21.734375 -5.640625 22.710938 -6.210938 23.515625 -6.953125 C 24.316406 -7.691406 24.925781 -8.570312 25.34375 -9.59375 C 25.769531 -10.613281 25.984375 -11.753906 25.984375 -13.015625 C 25.984375 -14.398438 25.671875 -15.535156 25.046875 -16.421875 C 24.421875 -17.304688 23.59375 -18.046875 22.5625 -18.640625 C 21.539062 -19.234375 20.367188 -19.738281 19.046875 -20.15625 C 17.734375 -20.570312 16.394531 -21 15.03125 -21.4375 C 13.664062 -21.875 12.320312 -22.378906 11 -22.953125 C 9.675781 -23.523438 8.503906 -24.269531 7.484375 -25.1875 C 6.460938 -26.101562 5.632812 -27.25 5 -28.625 C 4.375 -30 4.0625 -31.703125 4.0625 -33.734375 C 4.0625 -35.347656 4.375 -36.910156 5 -38.421875 C 5.632812 -39.941406 6.550781 -41.285156 7.75 -42.453125 C 8.957031 -43.628906 10.4375 -44.566406 12.1875 -45.265625 C 13.945312 -45.972656 15.96875 -46.328125 18.25 -46.328125 C 20.8125 -46.328125 23.140625 -45.921875 25.234375 -45.109375 C 27.335938 -44.296875 29.1875 -43.125 30.78125 -41.59375 Z M 29.28125 -38.65625 "/></g></g></g><g fill="#222222" fill-opacity="1"><g transform="translate(222.634029, 207.368965)"><g><path d="M 36.828125 -40.59375 L 22 -40.59375 L 22 0 L 15.828125 0 L 15.828125 -40.59375 L 0.953125 -40.59375 L 0.953125 -45.8125 L 36.828125 -45.8125 Z M 36.828125 -40.59375 "/></g></g></g><g fill="#222222" fill-opacity="1"><g transform="translate(134.20504, 241.365716)"><g><path d="M 9.765625 -10.765625 L 5.828125 -10.765625 L 5.828125 0 L 4.203125 0 L 4.203125 -10.765625 L 0.25 -10.765625 L 0.25 -12.140625 L 9.765625 -12.140625 Z M 9.765625 -10.765625 "/></g></g></g><g fill="#222222" fill-opacity="1"><g transform="translate(150.144234, 241.365716)"><g><path d="M 4.921875 -6.265625 C 5.390625 -6.265625 5.804688 -6.320312 6.171875 -6.4375 C 6.535156 -6.550781 6.835938 -6.710938 7.078125 -6.921875 C 7.328125 -7.140625 7.515625 -7.394531 7.640625 -7.6875 C 7.765625 -7.976562 7.828125 -8.300781 7.828125 -8.65625 C 7.828125 -9.382812 7.585938 -9.929688 7.109375 -10.296875 C 6.640625 -10.660156 5.929688 -10.84375 4.984375 -10.84375 L 3.1875 -10.84375 L 3.1875 -6.265625 Z M 10.53125 0 L 9.0625 0 C 8.769531 0 8.550781 -0.113281 8.40625 -0.34375 L 5.25 -4.6875 C 5.15625 -4.820312 5.050781 -4.914062 4.9375 -4.96875 C 4.832031 -5.03125 4.664062 -5.0625 4.4375 -5.0625 L 3.1875 -5.0625 L 3.1875 0 L 1.546875 0 L 1.546875 -12.140625 L 4.984375 -12.140625 C 5.753906 -12.140625 6.414062 -12.0625 6.96875 -11.90625 C 7.53125 -11.757812 7.992188 -11.535156 8.359375 -11.234375 C 8.722656 -10.941406 8.992188 -10.585938 9.171875 -10.171875 C 9.347656 -9.753906 9.4375 -9.289062 9.4375 -8.78125 C 9.4375 -8.351562 9.367188 -7.953125 9.234375 -7.578125 C 9.097656 -7.203125 8.898438 -6.863281 8.640625 -6.5625 C 8.378906 -6.269531 8.0625 -6.019531 7.6875 -5.8125 C 7.320312 -5.601562 6.90625 -5.445312 6.4375 -5.34375 C 6.644531 -5.21875 6.828125 -5.046875 6.984375 -4.828125 Z M 10.53125 0 "/></g></g></g><g fill="#222222" fill-opacity="1"><g transform="translate(166.693467, 241.365716)"><g><path d="M 8 -4.515625 L 6.09375 -9.453125 C 6.039062 -9.597656 5.984375 -9.765625 5.921875 -9.953125 C 5.859375 -10.148438 5.796875 -10.363281 5.734375 -10.59375 C 5.617188 -10.132812 5.5 -9.75 5.375 -9.4375 L 3.46875 -4.515625 Z M 11.421875 0 L 10.15625 0 C 10.007812 0 9.890625 -0.0351562 9.796875 -0.109375 C 9.703125 -0.179688 9.632812 -0.273438 9.59375 -0.390625 L 8.453125 -3.328125 L 3.015625 -3.328125 L 1.875 -0.390625 C 1.84375 -0.285156 1.773438 -0.191406 1.671875 -0.109375 C 1.578125 -0.0351562 1.460938 0 1.328125 0 L 0.046875 0 L 4.90625 -12.140625 L 6.5625 -12.140625 Z M 11.421875 0 "/></g></g></g><g fill="#222222" fill-opacity="1"><g transform="translate(184.098456, 241.365716)"><g><path d="M 11.421875 -12.140625 L 6.46875 0 L 5 0 L 0.046875 -12.140625 L 1.359375 -12.140625 C 1.503906 -12.140625 1.625 -12.101562 1.71875 -12.03125 C 1.8125 -11.957031 1.878906 -11.863281 1.921875 -11.75 L 5.34375 -3.1875 C 5.414062 -3 5.488281 -2.789062 5.5625 -2.5625 C 5.632812 -2.332031 5.695312 -2.09375 5.75 -1.84375 C 5.8125 -2.09375 5.875 -2.332031 5.9375 -2.5625 C 6 -2.789062 6.066406 -3 6.140625 -3.1875 L 9.546875 -11.75 C 9.585938 -11.851562 9.65625 -11.941406 9.75 -12.015625 C 9.851562 -12.097656 9.972656 -12.140625 10.109375 -12.140625 Z M 11.421875 -12.140625 "/></g></g></g><g fill="#222222" fill-opacity="1"><g transform="translate(201.503442, 241.365716)"><g><path d="M 9.046875 -1.34375 L 9.03125 0 L 1.546875 0 L 1.546875 -12.140625 L 9.03125 -12.140625 L 9.03125 -10.8125 L 3.203125 -10.8125 L 3.203125 -6.765625 L 7.921875 -6.765625 L 7.921875 -5.484375 L 3.203125 -5.484375 L 3.203125 -1.34375 Z M 9.046875 -1.34375 "/></g></g></g><g fill="#222222" fill-opacity="1"><g transform="translate(217.222348, 241.365716)"><g><path d="M 8.4375 -1.375 L 8.4375 0 L 1.546875 0 L 1.546875 -12.140625 L 3.1875 -12.140625 L 3.1875 -1.375 Z M 8.4375 -1.375 "/></g></g></g><g fill="#222222" fill-opacity="1"><g transform="translate(231.856748, 241.365716)"><g><path d="M 7.765625 -10.25 C 7.710938 -10.164062 7.65625 -10.101562 7.59375 -10.0625 C 7.539062 -10.019531 7.472656 -10 7.390625 -10 C 7.285156 -10 7.164062 -10.046875 7.03125 -10.140625 C 6.90625 -10.234375 6.742188 -10.335938 6.546875 -10.453125 C 6.359375 -10.566406 6.125 -10.671875 5.84375 -10.765625 C 5.570312 -10.867188 5.242188 -10.921875 4.859375 -10.921875 C 4.492188 -10.921875 4.171875 -10.867188 3.890625 -10.765625 C 3.609375 -10.671875 3.375 -10.535156 3.1875 -10.359375 C 3 -10.191406 2.851562 -9.992188 2.75 -9.765625 C 2.65625 -9.535156 2.609375 -9.289062 2.609375 -9.03125 C 2.609375 -8.6875 2.691406 -8.398438 2.859375 -8.171875 C 3.023438 -7.953125 3.242188 -7.765625 3.515625 -7.609375 C 3.796875 -7.453125 4.109375 -7.316406 4.453125 -7.203125 C 4.796875 -7.085938 5.148438 -6.96875 5.515625 -6.84375 C 5.878906 -6.71875 6.234375 -6.578125 6.578125 -6.421875 C 6.929688 -6.265625 7.242188 -6.066406 7.515625 -5.828125 C 7.796875 -5.585938 8.019531 -5.296875 8.1875 -4.953125 C 8.351562 -4.609375 8.4375 -4.1875 8.4375 -3.6875 C 8.4375 -3.15625 8.34375 -2.65625 8.15625 -2.1875 C 7.976562 -1.71875 7.710938 -1.3125 7.359375 -0.96875 C 7.015625 -0.625 6.585938 -0.351562 6.078125 -0.15625 C 5.578125 0.0390625 5.003906 0.140625 4.359375 0.140625 C 3.566406 0.140625 2.847656 0 2.203125 -0.28125 C 1.566406 -0.570312 1.019531 -0.960938 0.5625 -1.453125 L 1.03125 -2.234375 C 1.082031 -2.296875 1.140625 -2.347656 1.203125 -2.390625 C 1.265625 -2.429688 1.335938 -2.453125 1.421875 -2.453125 C 1.492188 -2.453125 1.578125 -2.421875 1.671875 -2.359375 C 1.765625 -2.296875 1.867188 -2.21875 1.984375 -2.125 C 2.097656 -2.039062 2.234375 -1.941406 2.390625 -1.828125 C 2.546875 -1.722656 2.71875 -1.625 2.90625 -1.53125 C 3.101562 -1.445312 3.328125 -1.375 3.578125 -1.3125 C 3.828125 -1.257812 4.109375 -1.234375 4.421875 -1.234375 C 4.804688 -1.234375 5.148438 -1.285156 5.453125 -1.390625 C 5.765625 -1.492188 6.023438 -1.644531 6.234375 -1.84375 C 6.441406 -2.039062 6.601562 -2.273438 6.71875 -2.546875 C 6.832031 -2.816406 6.890625 -3.117188 6.890625 -3.453125 C 6.890625 -3.816406 6.804688 -4.113281 6.640625 -4.34375 C 6.472656 -4.582031 6.253906 -4.78125 5.984375 -4.9375 C 5.710938 -5.09375 5.398438 -5.226562 5.046875 -5.34375 C 4.703125 -5.457031 4.347656 -5.570312 3.984375 -5.6875 C 3.617188 -5.800781 3.257812 -5.929688 2.90625 -6.078125 C 2.5625 -6.234375 2.253906 -6.429688 1.984375 -6.671875 C 1.710938 -6.921875 1.492188 -7.226562 1.328125 -7.59375 C 1.160156 -7.957031 1.078125 -8.40625 1.078125 -8.9375 C 1.078125 -9.375 1.160156 -9.789062 1.328125 -10.1875 C 1.492188 -10.59375 1.734375 -10.945312 2.046875 -11.25 C 2.367188 -11.5625 2.765625 -11.8125 3.234375 -12 C 3.703125 -12.1875 4.238281 -12.28125 4.84375 -12.28125 C 5.519531 -12.28125 6.132812 -12.171875 6.6875 -11.953125 C 7.25 -11.742188 7.738281 -11.4375 8.15625 -11.03125 Z M 7.765625 -10.25 "/></g></g></g></svg>